<?xml version="1.0" encoding="UTF-8"?>
<svg width="315px" height="220px" viewBox="0 0 315 220" version="1.1" xmlns="http://www.w3.org/2000/svg" xmlns:xlink="http://www.w3.org/1999/xlink">
    <!-- Generator: Sketch 52.4 (67378) - http://www.bohemiancoding.com/sketch -->
    <title>services/development</title>
    <desc>Created with Sketch.</desc>
    <defs>
        <linearGradient x1="51.2783793%" y1="53.9654605%" x2="91.8437705%" y2="7.15671606%" id="linearGradient-1">
            <stop stop-color="#919DA5" stop-opacity="0" offset="0%"></stop>
            <stop stop-color="#454F58" stop-opacity="0.93" offset="93%"></stop>
            <stop stop-color="#3F4952" offset="100%"></stop>
        </linearGradient>
        <linearGradient x1="50.0821693%" y1="100%" x2="50.0821693%" y2="0%" id="linearGradient-2">
            <stop stop-color="#3F4952" offset="0%"></stop>
            <stop stop-color="#919DA5" stop-opacity="0" offset="100%"></stop>
        </linearGradient>
        <linearGradient x1="50%" y1="100%" x2="50%" y2="0%" id="linearGradient-3">
            <stop stop-color="#3F4952" offset="0%"></stop>
            <stop stop-color="#919DA5" stop-opacity="0" offset="100%"></stop>
        </linearGradient>
        <linearGradient x1="49.9999558%" y1="100.016141%" x2="49.9999558%" y2="0.000852189414%" id="linearGradient-4">
            <stop stop-color="#919DA5" stop-opacity="0" offset="0%"></stop>
            <stop stop-color="#3F4952" offset="100%"></stop>
        </linearGradient>
        <linearGradient x1="49.9983396%" y1="100%" x2="49.9983396%" y2="0.000886185143%" id="linearGradient-5">
            <stop stop-color="#919DA5" stop-opacity="0" offset="0%"></stop>
            <stop stop-color="#3F4952" offset="100%"></stop>
        </linearGradient>
        <linearGradient x1="49.9996923%" y1="100%" x2="49.9996923%" y2="0.000904195023%" id="linearGradient-6">
            <stop stop-color="#919DA5" stop-opacity="0" offset="0%"></stop>
            <stop stop-color="#3F4952" offset="100%"></stop>
        </linearGradient>
        <linearGradient x1="0%" y1="50.0049432%" x2="100%" y2="50.0049432%" id="linearGradient-7">
            <stop stop-color="#3F4952" offset="0%"></stop>
            <stop stop-color="#919DA5" stop-opacity="0" offset="100%"></stop>
        </linearGradient>
        <linearGradient x1="0%" y1="49.8789346%" x2="100%" y2="49.8789346%" id="linearGradient-8">
            <stop stop-color="#7362DC" offset="0%"></stop>
            <stop stop-color="#3B306A" stop-opacity="0" offset="100%"></stop>
        </linearGradient>
        <linearGradient x1="0%" y1="49.9954657%" x2="100%" y2="49.9954657%" id="linearGradient-9">
            <stop stop-color="#F5F5F5" offset="0%"></stop>
            <stop stop-color="#FFFFFF" offset="100%"></stop>
        </linearGradient>
        <linearGradient x1="0%" y1="50%" x2="100%" y2="50%" id="linearGradient-10">
            <stop stop-color="#F5F5F5" offset="0%"></stop>
            <stop stop-color="#FFFFFF" offset="100%"></stop>
        </linearGradient>
        <linearGradient x1="10.3215141%" y1="30.9736643%" x2="92.1220407%" y2="67.5931725%" id="linearGradient-11">
            <stop stop-color="#7362DC" offset="0%"></stop>
            <stop stop-color="#3B306A" stop-opacity="0" offset="100%"></stop>
        </linearGradient>
        <linearGradient x1="2.68907323%" y1="4.68515902%" x2="102.688663%" y2="86.387808%" id="linearGradient-12">
            <stop stop-color="#7362DC" offset="0%"></stop>
            <stop stop-color="#6078FF" offset="100%"></stop>
        </linearGradient>
        <linearGradient x1="0%" y1="50%" x2="100%" y2="50%" id="linearGradient-13">
            <stop stop-color="#7362DC" offset="0%"></stop>
            <stop stop-color="#3B306A" stop-opacity="0" offset="100%"></stop>
        </linearGradient>
        <linearGradient x1="0%" y1="50%" x2="100%" y2="50%" id="linearGradient-14">
            <stop stop-color="#6078FF" offset="0%"></stop>
            <stop stop-color="#7362DC" offset="100%"></stop>
        </linearGradient>
        <linearGradient x1="0.0216327565%" y1="50.0022752%" x2="100%" y2="50.0022752%" id="linearGradient-15">
            <stop stop-color="#7362DC" offset="0%"></stop>
            <stop stop-color="#3B306A" stop-opacity="0" offset="100%"></stop>
        </linearGradient>
        <linearGradient x1="0%" y1="50.0219202%" x2="100%" y2="50.0219202%" id="linearGradient-16">
            <stop stop-color="#7362DC" offset="0%"></stop>
            <stop stop-color="#6078FF" offset="100%"></stop>
        </linearGradient>
        <linearGradient x1="49.7400646%" y1="99.3461252%" x2="49.7400646%" y2="0%" id="linearGradient-17">
            <stop stop-color="#7362DC" offset="0%"></stop>
            <stop stop-color="#6078FF" offset="100%"></stop>
        </linearGradient>
        <linearGradient x1="49.6006835%" y1="97.5524575%" x2="51.6354091%" y2="3.73737216%" id="linearGradient-18">
            <stop stop-color="#7362DC" offset="0%"></stop>
            <stop stop-color="#6078FF" offset="100%"></stop>
        </linearGradient>
        <linearGradient x1="-27.7299648%" y1="63.6126607%" x2="153.651599%" y2="34.544731%" id="linearGradient-19">
            <stop stop-color="#6078FF" offset="0%"></stop>
            <stop stop-color="#7362DC" offset="100%"></stop>
        </linearGradient>
        <linearGradient x1="0%" y1="50.0249829%" x2="99.9477944%" y2="50.0249829%" id="linearGradient-20">
            <stop stop-color="#7362DC" offset="0%"></stop>
            <stop stop-color="#3B306A" stop-opacity="0" offset="100%"></stop>
        </linearGradient>
        <linearGradient x1="0%" y1="50%" x2="100%" y2="50%" id="linearGradient-21">
            <stop stop-color="#7362DC" offset="0%"></stop>
            <stop stop-color="#6078FF" offset="100%"></stop>
        </linearGradient>
        <linearGradient x1="-0.0513711389%" y1="50%" x2="100.051371%" y2="50%" id="linearGradient-22">
            <stop stop-color="#F5F5F5" offset="0%"></stop>
            <stop stop-color="#FFFFFF" offset="100%"></stop>
        </linearGradient>
        <linearGradient x1="0.0080400952%" y1="50.0003273%" x2="100%" y2="50.0003273%" id="linearGradient-23">
            <stop stop-color="#F5F5F5" offset="0%"></stop>
            <stop stop-color="#FFFFFF" offset="100%"></stop>
        </linearGradient>
        <linearGradient x1="-0.00317064552%" y1="49.9800519%" x2="100.038879%" y2="49.9800519%" id="linearGradient-24">
            <stop stop-color="#7362DC" offset="0%"></stop>
            <stop stop-color="#6078FF" offset="100%"></stop>
        </linearGradient>
        <linearGradient x1="0%" y1="50%" x2="100%" y2="50%" id="linearGradient-25">
            <stop stop-color="#3B306A" stop-opacity="0" offset="0%"></stop>
            <stop stop-color="#7362DC" offset="100%"></stop>
        </linearGradient>
        <linearGradient x1="0%" y1="50.0029284%" x2="100%" y2="50.0029284%" id="linearGradient-26">
            <stop stop-color="#919DA5" stop-opacity="0" offset="0%"></stop>
            <stop stop-color="#3F4952" offset="100%"></stop>
        </linearGradient>
        <linearGradient x1="-0.0429418771%" y1="50.0414751%" x2="100%" y2="50.0414751%" id="linearGradient-27">
            <stop stop-color="#F5F5F5" offset="0%"></stop>
            <stop stop-color="#FFFFFF" offset="100%"></stop>
        </linearGradient>
        <linearGradient x1="-0.0080605675%" y1="49.9976614%" x2="100.004799%" y2="49.9976614%" id="linearGradient-28">
            <stop stop-color="#3B306A" stop-opacity="0" offset="0%"></stop>
            <stop stop-color="#7362DC" offset="100%"></stop>
        </linearGradient>
        <linearGradient x1="0.014945364%" y1="49.937197%" x2="100%" y2="49.937197%" id="linearGradient-29">
            <stop stop-color="#F5F5F5" offset="0%"></stop>
            <stop stop-color="#FFFFFF" offset="100%"></stop>
        </linearGradient>
        <linearGradient x1="0%" y1="50.0009361%" x2="100.172839%" y2="50.0009361%" id="linearGradient-30">
            <stop stop-color="#F5F5F5" offset="0%"></stop>
            <stop stop-color="#FFFFFF" offset="100%"></stop>
        </linearGradient>
        <linearGradient x1="0.0217190471%" y1="50.0281436%" x2="100.035524%" y2="50.0281436%" id="linearGradient-31">
            <stop stop-color="#7362DC" offset="0%"></stop>
            <stop stop-color="#6078FF" offset="100%"></stop>
        </linearGradient>
        <linearGradient x1="0.00787363069%" y1="50%" x2="99.976894%" y2="50%" id="linearGradient-32">
            <stop stop-color="#F5F5F5" offset="0%"></stop>
            <stop stop-color="#FFFFFF" offset="100%"></stop>
        </linearGradient>
        <linearGradient x1="-9.0914074%" y1="103.001101%" x2="69.8326909%" y2="29.9244501%" id="linearGradient-33">
            <stop stop-color="#7362DC" offset="0%"></stop>
            <stop stop-color="#3B306A" stop-opacity="0" offset="100%"></stop>
        </linearGradient>
        <linearGradient x1="-0.0300833253%" y1="49.9712146%" x2="99.9515585%" y2="49.9712146%" id="linearGradient-34">
            <stop stop-color="#F5F5F5" offset="0%"></stop>
            <stop stop-color="#FFFFFF" offset="100%"></stop>
        </linearGradient>
        <linearGradient x1="29.5981312%" y1="72.7281579%" x2="72.415136%" y2="28.5359445%" id="linearGradient-35">
            <stop stop-color="#F5F5F5" offset="0%"></stop>
            <stop stop-color="#FFFFFF" offset="100%"></stop>
        </linearGradient>
        <linearGradient x1="243.720313%" y1="211.474677%" x2="168.721415%" y2="133.280688%" id="linearGradient-36">
            <stop stop-color="#7362DC" offset="0%"></stop>
            <stop stop-color="#6078FF" offset="100%"></stop>
        </linearGradient>
        <linearGradient x1="0%" y1="50.0854701%" x2="100%" y2="50.0854701%" id="linearGradient-37">
            <stop stop-color="#6078FF" offset="0%"></stop>
            <stop stop-color="#7362DC" offset="100%"></stop>
        </linearGradient>
        <linearGradient x1="0%" y1="51.9230769%" x2="100%" y2="51.9230769%" id="linearGradient-38">
            <stop stop-color="#F5F5F5" offset="0%"></stop>
            <stop stop-color="#FFFFFF" offset="100%"></stop>
        </linearGradient>
        <linearGradient x1="0%" y1="51.9230769%" x2="99.2805755%" y2="51.9230769%" id="linearGradient-39">
            <stop stop-color="#F5F5F5" offset="0%"></stop>
            <stop stop-color="#FFFFFF" offset="100%"></stop>
        </linearGradient>
        <linearGradient x1="49.2648662%" y1="99.9989728%" x2="49.2648662%" y2="0.00379518911%" id="linearGradient-40">
            <stop stop-color="#7362DC" offset="0%"></stop>
            <stop stop-color="#6078FF" offset="100%"></stop>
        </linearGradient>
        <linearGradient x1="0%" y1="49.9267936%" x2="100%" y2="49.9267936%" id="linearGradient-41">
            <stop stop-color="#7362DC" offset="0%"></stop>
            <stop stop-color="#6078FF" offset="100%"></stop>
        </linearGradient>
        <linearGradient x1="49.9477071%" y1="99.9978548%" x2="49.9477071%" y2="-0.0810411774%" id="linearGradient-42">
            <stop stop-color="#7362DC" offset="0%"></stop>
            <stop stop-color="#6078FF" offset="100%"></stop>
        </linearGradient>
        <linearGradient x1="0%" y1="49.9250375%" x2="100%" y2="49.9250375%" id="linearGradient-43">
            <stop stop-color="#7362DC" offset="0%"></stop>
            <stop stop-color="#6078FF" offset="100%"></stop>
        </linearGradient>
        <linearGradient x1="49.9325939%" y1="99.997811%" x2="49.9325939%" y2="0.0350968935%" id="linearGradient-44">
            <stop stop-color="#7362DC" offset="0%"></stop>
            <stop stop-color="#6078FF" offset="100%"></stop>
        </linearGradient>
        <linearGradient x1="0%" y1="49.9532273%" x2="100%" y2="49.9532273%" id="linearGradient-45">
            <stop stop-color="#7362DC" offset="0%"></stop>
            <stop stop-color="#6078FF" offset="100%"></stop>
        </linearGradient>
        <linearGradient x1="49.9653581%" y1="99.998579%" x2="49.9653581%" y2="-0.0536825735%" id="linearGradient-46">
            <stop stop-color="#7362DC" offset="0%"></stop>
            <stop stop-color="#6078FF" offset="100%"></stop>
        </linearGradient>
        <linearGradient x1="0%" y1="49.9327052%" x2="100%" y2="49.9327052%" id="linearGradient-47">
            <stop stop-color="#7362DC" offset="0%"></stop>
            <stop stop-color="#6078FF" offset="100%"></stop>
        </linearGradient>
        <linearGradient x1="50%" y1="100%" x2="50%" y2="0.0218431265%" id="linearGradient-48">
            <stop stop-color="#7362DC" offset="0%"></stop>
            <stop stop-color="#6078FF" offset="100%"></stop>
        </linearGradient>
        <linearGradient x1="50.9890012%" y1="100%" x2="50.9890012%" y2="-0.172882963%" id="linearGradient-49">
            <stop stop-color="#7362DC" offset="0%"></stop>
            <stop stop-color="#6078FF" offset="100%"></stop>
        </linearGradient>
        <linearGradient x1="-35.6325173%" y1="95.2774072%" x2="106.143516%" y2="0.630763433%" id="linearGradient-50">
            <stop stop-color="#3F4952" offset="0%"></stop>
            <stop stop-color="#919DA5" stop-opacity="0" offset="100%"></stop>
        </linearGradient>
        <linearGradient x1="42.867685%" y1="32.082292%" x2="87.8955648%" y2="-151.095398%" id="linearGradient-51">
            <stop stop-color="#3F4952" offset="0%"></stop>
            <stop stop-color="#919DA5" stop-opacity="0" offset="100%"></stop>
        </linearGradient>
    </defs>
    <g id="services/development" stroke="none" stroke-width="1" fill="none" fill-rule="evenodd">
        <g id="development" transform="translate(6.000000, 7.000000)">
            <path d="M165.14,1.6 C99.86,-1.73 28.14,21.07 14.74,97.15 C1.34,173.23 35.89,199.4 137.35,188.37 C238.81,177.34 282.89,195 299.87,135.54 C316.85,76.08 274.37,7.18 165.14,1.6 Z" id="Path" fill="url(#linearGradient-1)" opacity="0.2"></path>
            <path d="M276.34,68.19 L276.34,42.25 L252,42.25 C261.617803,49.3507289 269.86513,58.1401967 276.34,68.19 Z" id="Path" fill="url(#linearGradient-2)" opacity="0.2" style="mix-blend-mode: multiply;"></path>
            <path d="M55.86,42.25 L44.78,42.25 L44.78,53.09 C48.1751039,49.1839129 51.8805128,45.5587655 55.86,42.25 Z" id="Path" fill="url(#linearGradient-3)" opacity="0.2" style="mix-blend-mode: multiply;"></path>
            <path d="M57.91,129.52 C71.35,53.45 143,30.65 208.31,34 C237.52,35.49 261.96,41.52 281.77,50.69 C259.92,24.15 221.38,4.48 165.14,1.6 C99.86,-1.73 28.14,21.07 14.74,97.15 C5.58,149.01 18.74,177.67 60.2,187.15 C54.22,172.69 53.65,153.61 57.91,129.52 Z" id="Path" fill="url(#linearGradient-4)" opacity="0.2"></path>
            <path d="M36.32,118.73 C49.76,42.66 121.44,19.85 186.72,23.19 C229.5,25.37 262,37.28 284.78,54.52 C263.56,26.07 224.07,4.61 165.14,1.6 C99.86,-1.73 28.14,21.07 14.74,97.15 C7.25,139.52 14.68,166.41 40.26,180.02 C32.76,165.14 31.7,144.88 36.32,118.73 Z" id="Path" fill="url(#linearGradient-5)" opacity="0.2"></path>
            <path d="M23.37,101.46 C36.81,25.39 105.26,5.82 170.54,9.16 C213.13,11.33 245.54,19.91 268.31,37.04 C245.44,17.6 211.23,4 165.14,1.6 C99.86,-1.73 28.14,21.07 14.74,97.15 C7.86,136.1 13.58,162 34.41,176.46 C18,161.38 17.13,136.81 23.37,101.46 Z" id="Path" fill="url(#linearGradient-6)" opacity="0.2"></path>
            <rect id="Rectangle" fill="url(#linearGradient-7)" opacity="0.3" x="52.11" y="57.72" width="212.42" height="101.15"></rect>
            <path d="M206.82,143.07 C206.82,143.07 215.61,165.07 220.2,171.27 C224.79,177.47 227.62,184.53 233.93,193.98 C240.24,203.43 257.74,201.24 263.59,194.98 C269.44,188.72 258.71,155.92 258.71,155.92 L245.71,140.72 L231.8,148 C231.8,148 242.63,164.87 246.71,168.19 C250.79,171.51 242.82,171.66 237.91,166.66 C233,161.66 220.83,141.15 220.83,141.15 L206.82,143.07 Z" id="Path" fill="#3B306A"></path>
            <polygon id="Path" fill="#3B306A" points="265.83 149.65 45.3 149.65 39.78 145.52 271.34 145.52"></polygon>
            <polygon id="Path" fill="url(#linearGradient-8)" points="265.83 149.65 45.3 149.65 39.78 145.52 271.34 145.52"></polygon>
            <rect id="Rectangle" fill="url(#linearGradient-9)" x="39.78" y="35.25" width="231.56" height="110.27"></rect>
            <rect id="Rectangle" fill="url(#linearGradient-3)" opacity="0.2" style="mix-blend-mode: multiply;" x="39.78" y="35.25" width="231.56" height="110.27"></rect>
            <path d="M271.34,118.47 L39.78,118.47 L39.78,117.47 L271.34,117.47 L271.34,118.47 Z M271.34,88.47 L39.78,88.47 L39.78,87.47 L271.34,87.47 L271.34,88.47 Z M271.34,58.47 L39.78,58.47 L39.78,57.47 L271.34,57.47 L271.34,58.47 Z" id="Shape" fill="url(#linearGradient-10)" fill-rule="nonzero" opacity="0.6"></path>
            <path d="M114.26,35.25 L125.15,35.25 C125.193388,37.6399028 124.914204,40.0247378 124.32,42.34 C122.5,49.83 118.32,57.85 116.05,58.71 C113.78,59.57 106.37,56.56 107.99,52.71 C109.86,48.23 111.41,45.65 113.85,39.62 C114.451627,38.2449577 114.595362,36.7129521 114.26,35.25 Z M64.46,47.86 C70.32,52.86 74.62,56.47 76.86,57.33 C79.1,58.19 83.76,52.16 82.86,49.92 C81.96,47.68 72.76,44.24 70.32,38.21 C69.9111493,37.2606577 69.683891,36.2430833 69.65,35.21 L57.47,35.21 C57.14,41.39 60.43,44.42 64.46,47.86 Z" id="Shape" fill="#B4AFEF" fill-rule="nonzero" opacity="0.4" style="mix-blend-mode: multiply;"></path>
            <path d="M201.46,75 C200.618765,75.0044879 199.778794,74.9342115 198.95,74.79 L196.18,73.79 C195.984554,73.6378548 195.912271,73.3753894 196.002265,73.1446335 C196.09226,72.9138775 196.323153,72.769651 196.57,72.79 L199.25,73.79 C199.25,73.79 204.91,74.79 207.72,71.73 C209.59,69.68 209.85,66.22 208.48,61.46 C205.773432,51.8558043 207.155846,41.5600743 212.3,33.01 C212.480346,32.7545285 212.832847,32.69206 213.09,32.87 C213.212078,32.954808 213.295429,33.0846719 213.321689,33.2309789 C213.347949,33.3772859 213.314964,33.5280307 213.23,33.65 C208.27066,41.9197247 206.942862,51.8691598 209.56,61.15 C211.05,66.31 210.71,70.15 208.56,72.5 C206.58,74.56 203.59,75 201.46,75 Z" id="Path" fill="#CCDCE3"></path>
            <path d="M195.26,76.26 L164.26,64.75 L171,46.66 C171.517216,45.2433795 173.075746,44.5041913 174.5,45 L200.34,54.59 C201.037591,54.8378982 201.606345,55.3556564 201.918492,56.0269616 C202.23064,56.6982667 202.260008,57.4668316 202,58.16 L195.26,76.26 Z" id="Path" fill="#3B306A"></path>
            <path d="M195.26,76.26 L164.26,64.75 L171,46.66 C171.517216,45.2433795 173.075746,44.5041913 174.5,45 L200.34,54.59 C201.037591,54.8378982 201.606345,55.3556564 201.918492,56.0269616 C202.23064,56.6982667 202.260008,57.4668316 202,58.16 L195.26,76.26 Z" id="Path" fill="url(#linearGradient-11)"></path>
            <path d="M194,95.31 L154.16,80.53 C153.70416,80.3576315 153.396217,79.9286197 153.378745,79.4415921 C153.361273,78.9545645 153.637683,78.5045894 154.08,78.3 L165.24,66.6 L192.42,76.68 L195.52,93.68 C195.718235,94.1238219 195.63164,94.6431857 195.300134,94.9986828 C194.968627,95.35418 194.456569,95.4767924 194,95.31 Z" id="Path" fill="#B4AFEF" opacity="0.3" style="mix-blend-mode: multiply;"></path>
            <path d="M198.64,89.27 L153.19,72.41 C152.671279,72.2142781 152.32005,71.7271285 152.298239,71.1731402 C152.276429,70.6191519 152.588272,70.105897 153.09,69.87 L164.24,64.75 L195.24,76.26 L200.35,87.41 C200.580096,87.9115685 200.486806,88.5022249 200.113329,88.9084635 C199.739851,89.3147021 199.159102,89.4572106 198.64,89.27 Z" id="Path" fill="#3B306A"></path>
            <path d="M192,72.37 L169.21,63.9 C168.499009,63.6333391 168.137039,62.842368 168.4,62.13 L173,49.85 C173.128003,49.5060627 173.387728,49.2272756 173.721754,49.075275 C174.05578,48.9232743 174.436593,48.9105805 174.78,49.04 L197.61,57.51 C198.320991,57.7766609 198.682961,58.567632 198.42,59.28 L193.86,71.56 C193.733554,71.9239872 193.460686,72.2185314 193.107407,72.3723788 C192.754128,72.5262263 192.352615,72.5253638 192,72.37 Z" id="Path" fill="#B4AFEF" opacity="0.3"></path>
            <polygon id="Path" fill="url(#linearGradient-12)" points="157.27 70.98 164.35 67.73 193.23 78.44 196.48 85.53"></polygon>
            <polygon id="Path" fill="#3B306A" points="58.8 149.56 50.02 149.65 67.59 167.22 73.1 167.22 58.8 149.56"></polygon>
            <polygon id="Path" fill="url(#linearGradient-13)" points="73.1 167.22 58.8 149.56 50.02 149.65 67.59 167.22"></polygon>
            <polygon id="Path" fill="url(#linearGradient-14)" points="73.1 167.22 73.1 162.23 64.42 149.65 58.8 149.56"></polygon>
            <path d="M134.86,73.3 L98,94.39 C97.5765509,94.6319108 97.0492662,94.5959709 96.6625584,94.2988395 C96.2758506,94.001708 96.105315,93.5014697 96.23,93.03 L94.39,77 L119.56,62.61 L134.56,71.13 C135.014236,71.2622975 135.348343,71.6491399 135.413134,72.1177926 C135.477925,72.5864452 135.261304,73.049425 134.86,73.3 Z" id="Path" fill="#B4AFEF" opacity="0.3" style="mix-blend-mode: multiply;"></path>
            <path d="M121.5,59.87 L92.78,76.29 L83.2,59.54 C82.4430639,58.2248699 82.8897459,56.5453455 84.2,55.78 L108.16,42.1 C108.791143,41.7336916 109.542002,41.6332594 110.247229,41.8208197 C110.952456,42.0083801 111.554217,42.4685517 111.92,43.1 L121.5,59.87 Z" id="Path" fill="#3B306A"></path>
            <path d="M121.5,59.87 L92.78,76.29 L83.2,59.54 C82.4430639,58.2248699 82.8897459,56.5453455 84.2,55.78 L108.16,42.1 C108.791143,41.7336916 109.542002,41.6332594 110.247229,41.8208197 C110.952456,42.0083801 111.554217,42.4685517 111.92,43.1 L121.5,59.87 Z" id="Path" fill="url(#linearGradient-15)"></path>
            <path d="M133.65,65.62 L91.57,89.69 C91.0865253,89.9560875 90.4910131,89.9085535 90.0558696,89.5691415 C89.6207261,89.2297296 89.4296321,88.6637108 89.57,88.13 L92.79,76.29 L121.5,59.87 L133.33,63.09 C133.868547,63.2371059 134.265408,63.6942003 134.335462,64.2480641 C134.405516,64.8019279 134.13496,65.3434386 133.65,65.62 Z" id="Path" fill="#3B306A"></path>
            <polygon id="Path" fill="url(#linearGradient-16)" points="93.09 85.64 95.14 78.12 121.88 62.83 129.4 64.88"></polygon>
            <path d="M116.65,59.73 L95.52,71.82 C94.8568212,72.1976826 94.0131616,71.9700285 93.63,71.31 L87.13,59.94 C86.7607226,59.2764956 86.9922505,58.4394331 87.65,58.06 L108.78,46 C109.443179,45.6223174 110.286838,45.8499715 110.67,46.51 L117.17,57.88 C117.519496,58.5364773 117.290339,59.3517464 116.65,59.73 Z" id="Path" fill="#B4AFEF" opacity="0.3"></path>
            <path d="M190.46,128.61 L188.54,128.55 L188.54,129.71 L180.67,129.46 L180.55,133.16 C180.448382,135.218737 181.927861,137.017606 183.967499,137.315269 C186.007136,137.612932 187.93901,136.311913 188.43,134.31 L190.31,134.37 C190.498951,134.36905 190.680773,134.297748 190.82,134.17 C190.96476,134.035562 191.047921,133.847547 191.05,133.65 L191.19,129.38 C191.195376,129.181068 191.121469,128.988155 190.984552,128.843736 C190.847636,128.699317 190.658936,128.615234 190.46,128.61 Z M189.57,132.86 L188.57,132.86 L188.66,130.09 L189.66,130.09 L189.57,132.86 Z" id="Shape" fill="url(#linearGradient-17)" fill-rule="nonzero"></path>
            <circle id="Oval" fill="#B4AFEF" cx="184.64" cy="129.59" r="4.01"></circle>
            <circle id="Oval" fill="#3B306A" cx="184.64" cy="129.59" r="2.84"></circle>
            <path d="M184.68,128.24 C185.955879,128.286163 187.044134,129.178041 187.34,130.42 C187.418796,130.180894 187.462583,129.931645 187.47,129.68 C187.556347,128.635711 187.060648,127.628721 186.180404,127.060245 C185.30016,126.491768 184.178406,126.454178 183.26208,126.962452 C182.345755,127.470727 181.783756,128.442274 181.8,129.49 C181.799114,129.742746 181.829341,129.99464 181.89,130.24 C182.266274,129.023109 183.406728,128.205579 184.68,128.24 Z" id="Path" fill="url(#linearGradient-18)"></path>
            <polygon id="Path" fill="#B4AFEF" points="264.48 154.97 269.66 130.91 278.2 126.7 269.81 152.28"></polygon>
            <polygon id="Path" fill="url(#linearGradient-19)" points="264.48 154.97 262.04 150.14 264.28 133.75 269.66 130.91"></polygon>
            <path d="M202.81,111.68 L234.81,95.51 L244.24,114.16 C244.967382,115.629994 244.379434,117.411655 242.92,118.16 L216.28,131.64 C214.810006,132.367382 213.028345,131.779434 212.28,130.32 L202.81,111.68 Z" id="Path" fill="#3B306A"></path>
            <path d="M202.81,111.68 L234.81,95.51 L244.24,114.16 C244.967382,115.629994 244.379434,117.411655 242.92,118.16 L216.28,131.64 C214.810006,132.367382 213.028345,131.779434 212.28,130.32 L202.81,111.68 Z" id="Path" fill="url(#linearGradient-20)"></path>
            <path d="M190,104.79 L236.84,81.09 C237.379979,80.8194545 238.029548,80.8991487 238.488111,81.2922033 C238.946675,81.685258 239.124778,82.3149957 238.94,82.89 L234.8,95.51 L202.8,111.68 L190.18,107.54 C189.607657,107.347187 189.208317,106.827951 189.168871,106.225292 C189.129424,105.622634 189.457674,105.055773 190,104.79 Z" id="Path" fill="#3B306A"></path>
            <polygon id="Path" fill="url(#linearGradient-21)" points="234.96 85.38 232.32 93.41 202.56 108.46 194.54 105.83"></polygon>
            <path d="M200.26,105.83 C199.999173,105.83369 199.770342,105.656803 199.708201,105.40346 C199.64606,105.150117 199.767069,104.887421 200,104.77 L207.73,100.77 C207.908633,100.678897 208.122299,100.690014 208.290513,100.799163 C208.458726,100.908313 208.555932,101.098912 208.545513,101.299164 C208.535094,101.499415 208.418633,101.678897 208.24,101.77 L200.51,105.77 C200.432323,105.808778 200.346815,105.8293 200.26,105.83 Z" id="Path" fill="#FCFCFC"></path>
            <path d="M203.28,106.68 C203.019173,106.68369 202.790342,106.506803 202.728201,106.25346 C202.66606,106.000117 202.787069,105.737421 203.02,105.62 L210.75,101.62 C210.882426,101.550062 211.037347,101.53608 211.180155,101.581177 C211.322962,101.626274 211.441757,101.726693 211.51,101.86 C211.649835,102.136459 211.543247,102.473988 211.27,102.62 L203.54,106.62 C203.458715,106.658634 203.369994,106.679108 203.28,106.68 Z" id="Path" fill="#FCFCFC"></path>
            <path d="M209.75,100.83 C209.489173,100.83369 209.260342,100.656803 209.198201,100.40346 C209.13606,100.150117 209.257069,99.8874208 209.49,99.77 L213.33,97.77 C213.603534,97.6310419 213.937954,97.7380563 214.08,98.01 C214.15281,98.1418682 214.168349,98.2978282 214.122988,98.44147 C214.077628,98.5851118 213.975338,98.703863 213.84,98.77 L210,100.77 C209.922323,100.808778 209.836815,100.8293 209.75,100.83 Z" id="Path" fill="#B4AFEF"></path>
            <path d="M212.77,101.68 C212.55743,101.681977 212.362753,101.561277 212.27,101.37 C212.135714,101.093113 212.24105,100.75955 212.51,100.61 L218.4,97.61 C218.679088,97.4716791 219.017528,97.5830083 219.16,97.86 C219.297487,98.1361836 219.1857,98.4715452 218.91,98.61 L213.03,101.61 C212.951169,101.656203 212.861373,101.680379 212.77,101.68 Z" id="Path" fill="#B4AFEF"></path>
            <path d="M239.43,115.18 L215.9,127.09 C215.165003,127.453691 214.274172,127.159717 213.9,126.43 L207.5,113.78 C207.130429,113.045427 207.425811,112.150332 208.16,111.78 L231.69,99.87 C232.425392,99.5120517 233.312092,99.8046625 233.69,100.53 L240.09,113.19 C240.452846,113.922093 240.15842,114.809835 239.43,115.18 Z" id="Path" fill="#B4AFEF" opacity="0.3"></path>
            <path d="M249.44,103.26 C247.688907,104.318096 245.411758,103.758875 244.35,102.01 L242.43,98.85 C241.371904,97.0989074 241.931125,94.8217579 243.68,93.76 C245.431093,92.7019038 247.708242,93.2611252 248.77,95.01 L250.68,98.17 C251.191737,99.0091059 251.348593,100.017337 251.115963,100.972248 C250.883332,101.92716 250.280331,102.750278 249.44,103.26 Z" id="Path" fill="#B4AFEF" opacity="0.3" style="mix-blend-mode: multiply;"></path>
            <path d="M249.69,102.47 C247.941951,103.527182 245.667891,102.96762 244.61,101.22 L242.69,98.06 C241.631904,96.3089074 242.191125,94.0317579 243.94,92.97 C245.688049,91.9128178 247.962109,92.4723799 249.02,94.22 L250.94,97.38 C251.998096,99.1310926 251.438875,101.408242 249.69,102.47 Z" id="Path" fill="url(#linearGradient-22)"></path>
            <path d="M250.07,101.77 C249.230894,102.281737 248.222663,102.438593 247.267752,102.205963 C246.31284,101.973332 245.489722,101.370331 244.98,100.53 L243.06,97.36 C242.450409,96.3485202 242.364811,95.1054916 242.83,94.02 C241.998942,95.2091705 241.944115,96.7756365 242.69,98.02 L244.61,101.18 C245.667891,102.92762 247.941951,103.487182 249.69,102.43 C250.360987,102.025474 250.883541,101.415243 251.18,100.69 C250.890799,101.124662 250.512421,101.492813 250.07,101.77 Z" id="Path" fill="#B4AFEF" opacity="0.3" style="mix-blend-mode: multiply;"></path>
            <path d="M202.76,148.87 C202.76,148.87 198.12,146.93 196.31,143.35 C194.5,139.77 198.18,133.2 201.02,133.23 C203.86,133.26 201.61,135.44 201.61,135.44 C202.586021,136.998703 203.390695,138.658343 204.01,140.39 C204.543349,142.114256 205.888725,143.467107 207.61,144.01 L202.76,148.87 Z" id="Path" fill="url(#linearGradient-23)"></path>
            <path d="M224.69,175.6 C223.39,173.29 218.84,165.75 213.43,168.74 C208.5,171.47 210.08,177.23 214.7,185.46 C215.89,187.56 224.01,203.62 225.3,205.89 C230.51,206.7 229.24,193.61 235.42,194.12 C231.51,186.26 225.45,177 224.69,175.6 Z" id="Path" fill="#F9F9F9"></path>
            <path d="M203.06,143.81 C200.96,145.12 200.79,147.04 203.48,150.7 C206.17,154.36 216.48,166.84 223.2,169.3 C227.365764,170.775474 231.832455,171.194656 236.2,170.52 C236.2,170.52 236.48,182.64 242.8,189.35 C247.16,193.98 246.25,194.94 263.8,185.88 C281.35,176.82 281.08,155.88 281.09,146.55 C281.1,137.22 281.6,137.75 273.48,138.55 C265.36,139.35 260.91,139.79 260.91,139.79 L249.77,144.79 C247.051892,146.861213 244.725392,149.40106 242.9,152.29 C241.49,154.58 239.03,156 235.03,157.19 C227.75,159.33 220.21,154.63 214.9,149.65 C209.59,144.67 207.72,140.89 203.06,143.81 Z" id="Path" fill="url(#linearGradient-24)"></path>
            <path d="M281.12,146.55 L281.12,146.44 C279.850281,145.224401 279.09812,143.566065 279.02,141.81 C278.890733,140.568314 278.653162,139.340306 278.31,138.14 C277.2,138.14 275.66,138.32 273.51,138.52 C265.39,139.28 260.94,139.76 260.94,139.76 L251.44,144.04 C253.54,148.91 251.3,155.95 255.35,157.97 C260.19,160.38 265.06,159.2 266.59,167.49 C267.26161,171.738351 270.413931,175.17044 274.59,176.2 C281.24,166.19 281.11,153.33 281.12,146.55 Z" id="Path" fill="url(#linearGradient-25)"></path>
            <path d="M218.67,168.8 L217.38,168.26 C217.38,168.26 226.8,181.38 230.38,189.26 C231.24,191.18 231.99,192.67 232.62,193.83 L235.47,194.09 C231.56,186.23 225.47,176.93 224.74,175.57 C224.01,174.21 221.61,170.39 218.67,168.8 Z" id="Path" fill="#B4AFEF" opacity="0.3" style="mix-blend-mode: multiply;"></path>
            <path d="M298,149.29 C293.63,146.54 284.62,152.15 276.92,162.46 C269.22,172.77 261.14,174.63 248.48,174.4 C235.82,174.17 231.77,176.1 232.29,187.4 C232.378854,189.611155 232.78985,191.797517 233.51,193.89 C241.27,201.96 249.01,205.89 258.07,205.89 C272.69,205.89 290.32,198.29 296.24,186.35 C300.07,172.86 302.61,152.17 298,149.29 Z" id="Path" fill="#F9F9F9"></path>
            <path d="M241.3,185.31 C241.3,185.31 277.7,192.39 296.88,164.56 C296.88,164.56 291,199.38 241.3,185.31 Z" id="Path" fill="url(#linearGradient-26)" opacity="0.2" style="mix-blend-mode: multiply;"></path>
            <path d="M243.52,119.72 C243.52,119.72 242.34,132.72 246.3,137.46 C250.26,142.2 256.07,138.09 256.07,138.09 L243.52,119.72 Z" id="Path" fill="url(#linearGradient-27)"></path>
            <path d="M248.63,109 C244.43,112.21 242.05,119.37 244.25,125.61 C246.45,131.85 247.71,133.04 252.68,137.52 C257.65,142 253.52,151.57 258.35,153.98 C263.18,156.39 268.06,155.21 269.59,163.5 C271.12,171.79 280.52,175.89 288.93,169.04 C297.34,162.19 299.84,150.66 292.69,147.19 C285.54,143.72 282.54,142.82 282.02,137.82 C281.5,132.82 279.02,127.4 275.54,125.33 C272.06,123.26 277.26,119.39 270.43,112.12 C263.6,104.85 255.61,103.64 248.63,109 Z" id="Path" fill="#3B306A"></path>
            <path d="M248.63,109 C244.43,112.21 242.05,119.37 244.25,125.61 C246.45,131.85 247.71,133.04 252.68,137.52 C257.65,142 253.52,151.57 258.35,153.98 C263.18,156.39 268.06,155.21 269.59,163.5 C271.12,171.79 280.52,175.89 288.93,169.04 C297.34,162.19 299.84,150.66 292.69,147.19 C285.54,143.72 282.54,142.82 282.02,137.82 C281.5,132.82 279.02,127.4 275.54,125.33 C272.06,123.26 277.26,119.39 270.43,112.12 C263.6,104.85 255.61,103.64 248.63,109 Z" id="Path" fill="url(#linearGradient-28)"></path>
            <path d="M119.61,53.22 C119.61,53.22 119.26,58.22 116.44,61.1 C113.62,63.98 106.23,62.57 105.35,59.87 C104.47,57.17 107.25,58.6 107.25,58.6 C108.420997,57.1790616 109.738248,55.885273 111.18,54.74 C112.64357,53.6863419 113.498895,51.9831634 113.47,50.18 L119.61,53.22 Z" id="Path" fill="#B4AFEF" opacity="0.4" style="mix-blend-mode: multiply;"></path>
            <path d="M119.61,51.85 C119.61,51.85 119.26,56.85 116.44,59.72 C113.62,62.59 106.23,61.19 105.35,58.49 C104.47,55.79 107.25,57.22 107.25,57.22 C108.420155,55.8012906 109.737528,54.5107343 111.18,53.37 C112.642233,52.3152024 113.497182,50.6127716 113.47,48.81 L119.61,51.85 Z" id="Path" fill="url(#linearGradient-29)"></path>
            <path d="M82.26,49.92 C82.26,49.92 86.71,51.14 88.18,52.11 C89.65,53.08 90.18,53.73 89.9,54.46 C89.73,54.85 88.44,55.1 88.44,55.1 C88.44,55.1 90.44,57.1 89.51,58.85 C88.58,60.6 84.65,61.54 83.26,59.7 C81.9092628,57.7254506 80.6609481,55.6827538 79.52,53.58 L82.26,49.92 Z" id="Path" fill="#B4AFEF" opacity="0.4" style="mix-blend-mode: multiply;"></path>
            <path d="M82.26,48.55 C82.26,48.55 86.71,49.76 88.18,50.73 C89.65,51.7 90.18,52.35 89.9,53.08 C89.73,53.47 88.44,53.72 88.44,53.72 C88.44,53.72 90.44,55.72 89.51,57.48 C88.58,59.24 84.65,60.16 83.26,58.33 C81.9107353,56.3510581 80.6624725,54.3051088 79.52,52.2 L82.26,48.55 Z" id="Path" fill="url(#linearGradient-30)"></path>
            <path d="M122.83,20.46 C116.629923,10.8063616 105.860783,5.06584963 94.39,5.3 C86.51,5.3 69.39,9.09 63.2,23.22 C57.01,37.35 61.36,41.48 67.2,46.48 C73.04,51.48 77.38,55.09 79.62,56 C81.86,56.91 86.51,50.84 85.62,48.6 C84.73,46.36 75.54,42.86 73.1,36.83 C70.66,30.8 75.66,28.73 75.66,28.73 L75.49,35.11 L113.29,35.11 L113.12,28.73 C113.12,28.73 119.05,32.18 116.61,38.21 C114.17,44.24 112.61,46.82 110.75,51.3 C109.13,55.19 116.57,58.19 118.75,57.3 C120.93,56.41 125.21,48.42 127.02,40.93 C129.4,31.39 126.64,26.15 122.83,20.46 Z" id="Path" fill="url(#linearGradient-31)"></path>
            <path d="M105.24,16.18 C105.24,15.98 105.32,15.79 105.35,15.58 C105.826882,12.5194568 105.381268,9.38622847 104.07,6.58 C100.915324,5.72011973 97.6597645,5.28626933 94.39,5.29 C90.112742,5.38320662 85.8757766,6.13884376 81.83,7.53 C81.4141339,8.71157931 81.2109918,9.95751727 81.23,11.21 C81.2350305,12.7078487 81.3621178,14.2027964 81.61,15.68 C81.61,15.68 82.84,23.84 85.94,25.68 C86.3482551,25.9250584 86.7942967,26.1007717 87.26,26.2 C89.17,28.92 91.9,30.79 95.26,30.79 C102,30.8 105.78,23.11 105.24,16.18 Z" id="Path" fill="#B4AFEF" opacity="0.4" style="mix-blend-mode: multiply;"></path>
            <path d="M94.37,2.54 C78.66,2.54 82.93,28.04 95.22,28.04 C107.51,28.04 110.08,2.54 94.37,2.54 Z" id="Path" fill="url(#linearGradient-32)"></path>
            <path d="M94.8,0.07 C90.19,0.07 82.53,3.24 82.61,11.22 C82.6183349,12.7181214 82.7487668,14.213071 83,15.69 C83,15.69 84.23,23.85 87.33,25.69 C90.43,27.53 92.55,24.69 96,24.16 C102,23.38 105.76,22.5 106.74,15.58 C107.86,7.6 103.44,0.07 94.8,0.07 Z" id="Path" fill="#3B306A"></path>
            <path d="M94.8,0.07 C90.19,0.07 82.53,3.24 82.61,11.22 C82.6183349,12.7181214 82.7487668,14.213071 83,15.69 C83,15.69 84.23,23.85 87.33,25.69 C90.43,27.53 92.55,24.69 96,24.16 C102,23.38 105.76,22.5 106.74,15.58 C107.86,7.6 103.44,0.07 94.8,0.07 Z" id="Path" fill="url(#linearGradient-33)"></path>
            <path d="M89.51,3.58 C89.51,3.58 98.6,-0.71 103.84,8.15 C103.84,8.15 98.88,3.76 89.51,3.58 Z" id="Path" fill="#7262DE"></path>
            <path d="M116.84,29 C111.67,23.37 103.23,27 103.23,27 C103.897674,26.9396342 104.570447,26.9699089 105.23,27.09 C104.01,27 103.23,27 103.23,27 C104.259279,27.2416581 105.194759,27.780689 105.92,28.55 C106.378631,28.9876326 106.60263,29.6167825 106.523758,30.2457847 C106.444887,30.874787 106.072484,31.429153 105.52,31.74 C103.52,33.14 100.18,32.8 97.02,32.8 C91.3,32.8 84.16,32.74 82.21,30.61 C80.26,28.48 83.21,27.34 83.21,27.34 C83.21,27.34 76.15,23.55 71.55,29.41 C66.95,35.27 73.66,43.16 79.49,46.98 C81.3863854,48.2417523 83.394853,49.3263247 85.49,50.22 C85.7170247,49.6675135 85.7522348,49.0548577 85.59,48.48 C84.73,46.24 75.48,42.79 73.04,36.76 C70.6,30.73 75.6,28.66 75.6,28.66 L75.43,35.04 L113.23,35.04 L113.06,28.66 C113.06,28.66 118.99,32.11 116.55,38.14 C114.11,44.17 112.55,46.75 110.69,51.23 C109.89,53.16 111.31,54.86 113.22,56 C121.46,35 122,34.65 116.84,29 Z" id="Path" fill="#B4AFEF" opacity="0.4" style="mix-blend-mode: multiply;"></path>
            <path d="M80.11,75.09 C79.2685023,75.6054 78.2563462,75.7643228 77.2973857,75.5316201 C76.3384253,75.2989174 75.5116809,74.6937643 75,73.85 L73.08,70.68 C72.0228178,68.9319512 72.5823799,66.6578908 74.33,65.6 C75.1675647,65.088743 76.1742729,64.9321503 77.1275582,65.164842 C78.0808436,65.3975337 78.9021859,66.0003434 79.41,66.84 L81.35,70 C81.8617368,70.8391059 82.0185934,71.8473366 81.7859626,72.8022483 C81.5533319,73.7571599 80.9503314,74.5802781 80.11,75.09 Z" id="Path" fill="#B4AFEF" opacity="0.3" style="mix-blend-mode: multiply;"></path>
            <path d="M80.36,74.3 C78.6145586,75.3589509 76.3412449,74.8040476 75.28,73.06 L73.36,69.89 C72.3010491,68.1445586 72.8559524,65.8712449 74.6,64.81 C75.4391059,64.2982632 76.4473366,64.1414066 77.4022483,64.3740374 C78.3571599,64.6066681 79.1802781,65.2096686 79.69,66.05 L81.61,69.22 C82.6671822,70.9680488 82.1076201,73.2421092 80.36,74.3 Z" id="Path" fill="url(#linearGradient-34)"></path>
            <path d="M80.74,73.61 C78.9889074,74.6680962 76.7117579,74.1088748 75.65,72.36 L73.73,69.2 C73.1217766,68.185051 73.0326711,66.9412871 73.49,65.85 C72.667083,67.0428264 72.6162715,68.6062576 73.36,69.85 L75.28,73.02 C75.9999495,74.2124162 77.3300014,74.8978125 78.7188899,74.7921133 C80.1077784,74.686414 81.318791,73.8076338 81.85,72.52 C81.5580272,72.9550811 81.1803173,73.3259853 80.74,73.61 Z" id="Path" fill="#B4AFEF" opacity="0.3" style="mix-blend-mode: multiply;"></path>
            <polygon id="Path" fill="#B4AFEF" opacity="0.3" style="mix-blend-mode: multiply;" points="156.54 107.81 142.57 122.17 123.91 104.04 137.88 89.67"></polygon>
            <polygon id="Path" fill="#CCDCE3" points="156.51 105.86 142.54 120.22 123.89 102.09 137.86 87.72"></polygon>
            <polygon id="Path" fill="#B4AFEF" opacity="0.3" style="mix-blend-mode: multiply;" points="142.51 118.28 155.52 104.9 137.86 87.72 124.85 101.1"></polygon>
            <polygon id="Path" fill="url(#linearGradient-35)" points="156.46 101.96 142.49 116.33 123.83 98.19 137.8 83.82"></polygon>
            <path d="M155.78,127.88 C155.227715,127.88 154.78,127.432285 154.78,126.88 L154.78,116.22 C154.786042,115.993305 154.833489,115.769626 154.92,115.56 C154.179759,115.851105 153.692219,116.56458 153.69,117.36 L153.69,127.08 C153.687339,127.59625 153.890556,128.09227 154.254665,128.458256 C154.618775,128.824242 155.113743,129.030007 155.63,129.03 L161.46,129.03 C162.223065,129.030463 162.913979,128.579014 163.22,127.88 L155.78,127.88 Z" id="Path" fill="#B4AFEF"></path>
            <path d="M161.48,113.12 L155.65,113.12 C155.133743,113.119993 154.638775,113.325758 154.274665,113.691744 C153.910556,114.05773 153.707339,114.55375 153.71,115.07 L153.71,127.07 C153.716139,127.381812 153.798538,127.687377 153.95,127.96 C153.95,126.82 154.8,126.72 154.8,126.72 L161.48,126.72 C162.004835,126.73624 162.513838,126.53904 162.890741,126.173444 C163.267643,125.807848 163.480251,125.305086 163.48,124.78 L163.48,115.06 C163.447553,113.978931 162.561556,113.119513 161.48,113.12 Z" id="Path" fill="#3B306A"></path>
            <path d="M143.94,45.84 L139.83,49.63 C139.547929,49.8809183 139.380053,50.2357766 139.364964,50.6129986 C139.349875,50.9902205 139.488872,51.3573537 139.75,51.63 L148.03,60.63 L148.96,61.63 C149.478852,62.1852199 150.347412,62.2208531 150.91,61.71 L155.03,57.91 C155.313266,57.6592125 155.481148,57.3031273 155.494382,56.9250284 C155.507615,56.5469294 155.365039,56.1799782 155.1,55.91 L154.17,54.91 L145.89,45.91 C145.370789,45.3523303 144.497861,45.3209944 143.94,45.84 Z" id="Path" fill="#B4AFEF" opacity="0.3" style="mix-blend-mode: multiply;"></path>
            <path d="M142.81,47.41 C142.651267,47.41 142.499471,47.3449443 142.39,47.23 C141.061458,45.7228718 140.260948,43.8234158 140.11,41.82 L140.11,35.25 C140.11,34.9407205 140.360721,34.69 140.67,34.69 C140.980938,34.6899521 141.234545,34.9391098 141.24,35.25 L141.24,41.82 C141.395543,43.5431617 142.096093,45.1719409 143.24,46.47 C143.45739,46.6884676 143.45739,47.0415324 143.24,47.26 C143.123735,47.3675747 142.967949,47.4219186 142.81,47.41 Z" id="Path" fill="#CCDCE3"></path>
            <path d="M155.1,55.89 L151,59.69 C150.728686,59.9538072 150.360943,60.0946236 149.98282,60.0794987 C149.604697,60.0643738 149.249376,59.8946348 149,59.61 L140.72,50.61 C140.458872,50.3373537 140.319875,49.9702205 140.334964,49.5929986 C140.350053,49.2157766 140.517929,48.8609183 140.8,48.61 L145,44.9 C145.267513,44.6526074 145.622557,44.5219733 145.986619,44.5369862 C146.350681,44.551999 146.693764,44.7114219 146.94,44.98 L155.22,53.98 C155.699656,54.5455042 155.646663,55.3889765 155.1,55.89 Z" id="Path" fill="#3B306A"></path>
            <path d="M151,59.68 L155.12,55.88 C155.389632,55.6338197 155.548955,55.2895635 155.56212,54.9246899 C155.575286,54.5598163 155.441188,54.2049727 155.19,53.94 L156.13,54.94 C156.393807,55.2113139 156.534624,55.5790573 156.519499,55.9571799 C156.504374,56.3353026 156.334635,56.6906238 156.05,56.94 L151.94,60.73 C151.382139,61.2490056 150.509211,61.2176697 149.99,60.66 L149.05,59.66 C149.583205,60.2034133 150.455761,60.2123626 151,59.68 Z M142.73,50.68 L150.08,58.68 L154.19,54.88 L146.85,46.93 L142.73,50.68 Z M144.88,47 C145.0134,47.1360952 145.0134,47.3539048 144.88,47.49 L143.41,48.85 C143.323121,48.9552125 143.183017,49.0003442 143.051062,48.9656254 C142.919106,48.9309066 142.819356,48.8226675 142.795507,48.6883212 C142.771658,48.5539749 142.828057,48.418016 142.94,48.34 L144.42,46.98 C144.555204,46.8660319 144.755198,46.8747272 144.88,47 Z" id="Shape" fill="url(#linearGradient-36)" fill-rule="nonzero"></path>
            <path d="M82.12,105.64 L61.56,105.64 C60.9381817,105.645431 60.435431,106.148182 60.43,106.77 L60.43,135.44 C60.43,136.064082 60.9359182,136.57 61.56,136.57 L82.12,136.57 C82.7440818,136.57 83.25,136.064082 83.25,135.44 L83.25,106.77 C83.244569,106.148182 82.7418183,105.645431 82.12,105.64 Z" id="Path" fill="#B4AFEF" opacity="0.3" style="mix-blend-mode: multiply;"></path>
            <rect id="Rectangle" fill="#B4AFEF" x="61.56" y="105.64" width="22.81" height="29.8" rx="1.12"></rect>
            <rect id="Rectangle" fill="#3B306A" x="61.56" y="104.52" width="22.81" height="29.8" rx="1.12"></rect>
            <rect id="Rectangle" fill="url(#linearGradient-10)" x="62.94" y="106.68" width="20.04" height="26.02"></rect>
            <path d="M71.37,114.19 L65,114.19 L65,110.37 L71.33,110.37 L71.37,114.19 Z M80.67,110.37 L72.52,110.37 L72.52,111.22 L80.67,111.22 L80.67,110.37 Z M80.67,111.85 L72.52,111.85 L72.52,112.7 L80.67,112.7 L80.67,111.85 Z M80.67,113.34 L72.52,113.34 L72.52,114.19 L80.67,114.19 L80.67,113.34 Z" id="Shape" fill="#B4AFEF" fill-rule="nonzero"></path>
            <rect id="Rectangle" fill="url(#linearGradient-37)" x="62.94" y="115.9" width="20.04" height="5.85"></rect>
            <rect id="Rectangle" fill="url(#linearGradient-10)" x="68.52" y="117.35" width="8.88" height="1.24"></rect>
            <rect id="Rectangle" fill="#3B306A" x="71.12" y="119.3" width="3.67" height="1.24"></rect>
            <rect id="Rectangle" fill="url(#linearGradient-14)" x="62.94" y="106.68" width="20.04" height="2.2"></rect>
            <rect id="Rectangle" fill="url(#linearGradient-38)" x="63.89" y="107.51" width="3.63" height="1" rx="0.26"></rect>
            <rect id="Rectangle" fill="url(#linearGradient-38)" x="77.24" y="107.51" width="1.39" height="1" rx="0.26"></rect>
            <rect id="Rectangle" fill="url(#linearGradient-39)" x="79.03" y="107.51" width="1.39" height="1" rx="0.26"></rect>
            <rect id="Rectangle" fill="url(#linearGradient-39)" x="80.81" y="107.51" width="1.39" height="1" rx="0.26"></rect>
            <rect id="Rectangle" fill="#3B306A" x="62.94" y="126.21" width="10.02" height="6.48"></rect>
            <rect id="Rectangle" fill="#B4AFEF" x="72.96" y="126.21" width="10.02" height="6.48"></rect>
            <path d="M82,127.54 L73.89,127.54 L73.89,128.39 L82,128.39 L82,127.54 Z M79.79,129 L73.89,129 L73.89,129.85 L79.79,129.85 L79.79,129 Z" id="Shape" fill="#3B306A" fill-rule="nonzero"></path>
            <path d="M72,127.54 L63.87,127.54 L63.87,128.39 L72,128.39 L72,127.54 Z M72,129 L63.87,129 L63.87,129.85 L72,129.85 L72,129 Z M72,130.49 L63.87,130.49 L63.87,131.34 L72,131.34 L72,130.49 Z" id="Shape" fill="#B4AFEF" fill-rule="nonzero"></path>
            <rect id="Rectangle" fill="#3B306A" x="72.02" y="134.58" width="1.87" height="1"></rect>
            <path d="M79.54,154 L79.37,154 C79.2481384,153.992517 79.1337081,153.938877 79.05,153.85 L73.74,148.34 C72.9351099,147.501056 72.4870149,146.382611 72.49,145.22 L72.4899852,134.86 L73.49,134.86 L73.49,145.19 C73.4923663,146.096735 73.851603,146.966088 74.49,147.61 L79.62,153 C80.3272252,152.987395 81.0072514,152.725301 81.54,152.26 C82.1938769,151.562941 82.5241751,150.622861 82.45,149.67 L83.45,149.67 C83.5308375,150.906097 83.0796222,152.117828 82.21,153 C81.4730413,153.649973 80.5226176,154.005937 79.54,154 Z" id="Path" fill="#CCDCE3"></path>
            <path d="M191.06,80.11 C190.997459,80.1241673 190.932541,80.1241673 190.87,80.11 L165.27,70.62 C165.080649,70.5503332 164.942849,70.384941 164.908507,70.186125 C164.874164,69.9873091 164.948498,69.7852742 165.103507,69.656125 C165.258515,69.5269759 165.470649,69.4903332 165.66,69.56 L191.26,79.06 C191.52325,79.1492223 191.681214,79.4180362 191.63105,79.6914312 C191.580886,79.9648261 191.337777,80.1600488 191.06,80.15 L191.06,80.11 Z" id="Path" fill="#FEFEFE"></path>
            <path d="M192.27,82.73 C192.204177,82.7450024 192.135823,82.7450024 192.07,82.73 L178,77.47 C177.708715,77.3580279 177.561623,77.0326414 177.67,76.74 C177.721707,76.6007538 177.826618,76.4877548 177.961647,76.4258663 C178.096677,76.3639778 178.250762,76.3582704 178.39,76.41 L192.48,81.64 C192.741001,81.7289239 192.898431,81.9946064 192.851081,82.2662435 C192.803732,82.5378807 192.565694,82.7346284 192.29,82.73 L192.27,82.73 Z" id="Path" fill="#FEFEFE"></path>
            <path d="M175.59,76.54 C175.527031,76.5496052 175.462969,76.5496052 175.4,76.54 L169.84,74.48 C169.547289,74.3723045 169.397304,74.0477109 169.505,73.755 C169.612696,73.4622891 169.937289,73.3123045 170.23,73.42 L175.79,75.48 C176.081285,75.5919721 176.228377,75.9173586 176.12,76.21 C176.02673,76.4174136 175.817285,76.5478228 175.59,76.54 Z" id="Path" fill="#B4AFEF"></path>
            <path d="M109.61,131.63 C109.404053,131.619225 109.244291,131.44615 109.25,131.24 L109.86,117.55 C109.862554,117.450051 109.905449,117.355391 109.978916,117.287575 C110.052382,117.21976 110.150167,117.184563 110.25,117.19 C110.455947,117.200775 110.615709,117.37385 110.61,117.58 L110,131.27 C109.989225,131.475947 109.81615,131.635709 109.61,131.63 Z" id="Path" fill="url(#linearGradient-40)"></path>
            <path d="M111,135.36 L110.9,135.36 C110.69849,135.301918 110.582127,135.091571 110.64,134.89 L114.48,121.74 C114.538129,121.543465 114.741641,121.428436 114.94,121.48 C115.137931,121.542514 115.252216,121.749107 115.2,121.95 L111.36,135.1 C111.314112,135.259171 111.165527,135.366483 111,135.36 Z" id="Path" fill="#3B306A"></path>
            <path d="M127.32,98.56 L134.15,91.73" id="Path" fill="url(#linearGradient-41)"></path>
            <path d="M127.32,98.93 C127.218515,98.9330478 127.120462,98.8931001 127.05,98.82 C126.911517,98.6704712 126.911517,98.4395288 127.05,98.29 L133.88,91.46 C134.029529,91.3215174 134.260471,91.3215174 134.41,91.46 C134.481474,91.5296439 134.521785,91.6252063 134.521785,91.725 C134.521785,91.8247937 134.481474,91.9203561 134.41,91.99 L127.58,98.82 C127.513371,98.8926152 127.418513,98.9327475 127.32,98.93 Z" id="Path" fill="url(#linearGradient-42)"></path>
            <path d="M129.25,100.49 L135.92,93.82" id="Path" fill="url(#linearGradient-43)"></path>
            <path d="M129.25,100.86 C129.148515,100.863048 129.050462,100.8231 128.98,100.75 C128.841517,100.600471 128.841517,100.369529 128.98,100.22 L135.65,93.55 C135.721367,93.4779379 135.818579,93.4373948 135.92,93.4373948 C136.021421,93.4373948 136.118633,93.4779379 136.19,93.55 C136.328483,93.6995288 136.328483,93.9304712 136.19,94.08 L129.51,100.75 C129.443371,100.822615 129.348513,100.862748 129.25,100.86 Z" id="Path" fill="url(#linearGradient-44)"></path>
            <path d="M131.18,102.42 L141.87,91.73" id="Path" fill="url(#linearGradient-45)"></path>
            <path d="M131.18,102.79 C131.078515,102.793048 130.980462,102.7531 130.91,102.68 C130.771517,102.530471 130.771517,102.299529 130.91,102.15 L141.6,91.46 C141.749529,91.3215174 141.980471,91.3215174 142.13,91.46 C142.201474,91.5296439 142.241785,91.6252063 142.241785,91.725 C142.241785,91.8247937 142.201474,91.9203561 142.13,91.99 L131.44,102.68 C131.373371,102.752615 131.278513,102.792748 131.18,102.79 Z" id="Path" fill="url(#linearGradient-46)"></path>
            <path d="M133.11,104.35 L140.53,96.92" id="Path" fill="url(#linearGradient-47)"></path>
            <path d="M133.11,104.72 C133.009366,104.718606 132.912957,104.679328 132.84,104.61 C132.701517,104.460471 132.701517,104.229529 132.84,104.08 L140.27,96.66 C140.339644,96.5885261 140.435206,96.548215 140.535,96.548215 C140.634794,96.548215 140.730356,96.5885261 140.8,96.66 C140.938483,96.8095288 140.938483,97.0404712 140.8,97.19 L133.37,104.61 C133.300675,104.678694 133.207577,104.718082 133.11,104.72 Z" id="Path" fill="url(#linearGradient-48)"></path>
            <path d="M135.04,106.28 L139.05,102.26" id="Path" fill="url(#linearGradient-21)"></path>
            <path d="M135,106.65 C134.899164,106.649617 134.802395,106.610193 134.73,106.54 C134.586468,106.392486 134.586468,106.157514 134.73,106.01 L138.73,102.01 C138.799644,101.938526 138.895206,101.898215 138.995,101.898215 C139.094794,101.898215 139.190356,101.938526 139.26,102.01 C139.398483,102.159529 139.398483,102.390471 139.26,102.54 L135.26,106.54 C135.190675,106.608694 135.097577,106.648082 135,106.65 Z" id="Path" fill="url(#linearGradient-49)"></path>
            <path d="M143.29,109.61 C143.191745,109.602358 143.100599,109.555834 143.036772,109.480744 C142.972945,109.405654 142.941713,109.308203 142.95,109.21 L144.22,95.57 C144.261538,95.3854637 144.432476,95.2595744 144.621027,95.2746585 C144.809579,95.2897426 144.958328,95.4412069 144.97,95.63 L143.7,109.28 C143.673956,109.482158 143.493053,109.627762 143.29,109.61 Z" id="Path" fill="#3B306A"></path>
            <path d="M160.61,117.92 L156.52,117.92 C156.23682,117.882243 156.025333,117.640686 156.025333,117.355 C156.025333,117.069314 156.23682,116.827757 156.52,116.79 L160.61,116.79 C160.829802,116.760693 161.04665,116.861521 161.165897,117.048475 C161.285144,117.235428 161.285144,117.474572 161.165897,117.661525 C161.04665,117.848479 160.829802,117.949307 160.61,117.92 Z" id="Path" fill="#FEFEFE"></path>
            <path d="M160.61,120.92 L156.52,120.92 C156.23682,120.882243 156.025333,120.640686 156.025333,120.355 C156.025333,120.069314 156.23682,119.827757 156.52,119.79 L160.61,119.79 C160.829802,119.760693 161.04665,119.861521 161.165897,120.048475 C161.285144,120.235428 161.285144,120.474572 161.165897,120.661525 C161.04665,120.848479 160.829802,120.949307 160.61,120.92 Z" id="Path" fill="#FEFEFE"></path>
            <path d="M2.85,130.7 C2.85,130.7 -7.56,85.89 15.55,70.45 C15.55,70.45 2.3,98.78 2.85,130.7 Z" id="Path" fill="url(#linearGradient-50)" opacity="0.2" style="mix-blend-mode: multiply;"></path>
            <path d="M38.39,179.24 C38.39,179.24 77.33,205.65 131.12,178.239998 C131.12,178.23 77.82,215.15 38.39,179.24 Z" id="Path" fill="url(#linearGradient-51)" opacity="0.2" style="mix-blend-mode: multiply;"></path>
        </g>
    </g>
</svg>