<svg xmlns="http://www.w3.org/2000/svg" width="320" height="220" viewBox="0 0 320 220">
    <defs>
        <linearGradient id="a" x1="49.998%" x2="49.998%" y1="100%" y2="-.001%">
            <stop offset="0%" stop-color="#919DA5" stop-opacity="0"/>
            <stop offset="100%" stop-color="#3F4952"/>
        </linearGradient>
        <linearGradient id="b" x1="20.426%" x2="84.742%" y1="98.278%" y2="5.894%">
            <stop offset="0%" stop-color="#3F4952"/>
            <stop offset="100%" stop-color="#919DA5" stop-opacity="0"/>
        </linearGradient>
        <linearGradient id="c" x1="49.992%" x2="49.992%" y1="100%" y2="59.128%">
            <stop offset="0%" stop-color="#3F4952"/>
            <stop offset="100%" stop-color="#919DA5" stop-opacity="0"/>
        </linearGradient>
        <linearGradient id="d" x1="49.989%" x2="49.989%" y1="90.714%" y2="-42.459%">
            <stop offset="0%" stop-color="#3F4952"/>
            <stop offset="100%" stop-color="#919DA5" stop-opacity="0"/>
        </linearGradient>
        <linearGradient id="e" x1="49.993%" x2="49.993%" y1="128.187%" y2="-1.244%">
            <stop offset="0%" stop-color="#919DA5" stop-opacity="0"/>
            <stop offset="100%" stop-color="#3F4952"/>
        </linearGradient>
        <linearGradient id="f" x1="0%" y1="49.963%" y2="49.963%">
            <stop offset="0%" stop-color="#3F4952"/>
            <stop offset="100%" stop-color="#919DA5" stop-opacity="0"/>
        </linearGradient>
        <linearGradient id="g" x1="49.945%" x2="49.945%" y1="100.134%" y2="0%">
            <stop offset="0%" stop-color="#3F4952"/>
            <stop offset="100%" stop-color="#919DA5" stop-opacity="0"/>
        </linearGradient>
        <linearGradient id="h" x1="0%" y1="50%" y2="50%">
            <stop offset="0%" stop-color="#919DA5"/>
            <stop offset="100%" stop-color="#94A1AB"/>
        </linearGradient>
        <linearGradient id="i" x1="49.998%" x2="49.998%" y1="100%" y2="-.001%">
            <stop offset="0%" stop-color="#919DA5" stop-opacity="0"/>
            <stop offset="100%" stop-color="#3F4952"/>
        </linearGradient>
        <linearGradient id="j" x1="50.003%" x2="50.003%" y1="100%" y2="0%">
            <stop offset="0%" stop-color="#3F4952"/>
            <stop offset="100%" stop-color="#919DA5" stop-opacity="0"/>
        </linearGradient>
        <linearGradient id="k" x1="0%" y1="50%" y2="50%">
            <stop offset="0%" stop-color="#3F4952"/>
            <stop offset="100%" stop-color="#919DA5" stop-opacity="0"/>
        </linearGradient>
        <linearGradient id="l" x1="50%" x2="50%" y1="100%" y2="0%">
            <stop offset="0%" stop-color="#F5F5F5"/>
            <stop offset="100%" stop-color="#FFF"/>
        </linearGradient>
        <linearGradient id="m" x1="-.037%" y1="49.957%" y2="49.957%">
            <stop offset="0%" stop-color="#3B306A"/>
            <stop offset="100%" stop-color="#B4AFEF" stop-opacity=".2"/>
        </linearGradient>
        <linearGradient id="n" x1="50%" x2="50%" y1="100%" y2="0%">
            <stop offset="0%" stop-color="#3B306A" stop-opacity="0"/>
            <stop offset="100%" stop-color="#3B306A"/>
        </linearGradient>
        <linearGradient id="o" x1=".459%" y1="50.478%" y2="50.478%">
            <stop offset="0%" stop-color="#7362DC"/>
            <stop offset="100%" stop-color="#6078FF"/>
        </linearGradient>
        <linearGradient id="p" x1=".459%" y1="50.014%" y2="50.014%">
            <stop offset="0%" stop-color="#7362DC"/>
            <stop offset="100%" stop-color="#6078FF"/>
        </linearGradient>
        <linearGradient id="q" x1="35.793%" x2="135.791%" y1="49.969%" y2="49.969%">
            <stop offset="0%" stop-color="#3B306A" stop-opacity="0"/>
            <stop offset="100%" stop-color="#7362DC"/>
        </linearGradient>
        <linearGradient id="r" x1="-.027%" y1="49.993%" y2="49.993%">
            <stop offset="0%" stop-color="#3B306A" stop-opacity="0"/>
            <stop offset="100%" stop-color="#7362DC"/>
        </linearGradient>
        <linearGradient id="s" x1=".181%" x2="100.181%" y1="50.183%" y2="50.183%">
            <stop offset="0%" stop-color="#3B306A" stop-opacity="0"/>
            <stop offset="100%" stop-color="#7362DC"/>
        </linearGradient>
        <linearGradient id="t" x1="-8.29%" x2="91.71%" y1="50.348%" y2="49.648%">
            <stop offset="0%" stop-color="#7362DC"/>
            <stop offset="100%" stop-color="#3B306A" stop-opacity="0"/>
        </linearGradient>
        <linearGradient id="u" x1="0%" x2="100.01%" y1="49.946%" y2="49.946%">
            <stop offset="0%" stop-color="#3B306A"/>
            <stop offset="100%" stop-color="#B4AFEF" stop-opacity=".2"/>
        </linearGradient>
        <linearGradient id="v" x1="-.007%" y1="50.021%" y2="50.021%">
            <stop offset="0%" stop-color="#7362DC"/>
            <stop offset="100%" stop-color="#6078FF"/>
        </linearGradient>
        <linearGradient id="w" x1="49.631%" x2="111.227%" y1="52.542%" y2="81.09%">
            <stop offset="0%" stop-color="#3B306A"/>
            <stop offset="100%" stop-color="#3B306A" stop-opacity="0"/>
        </linearGradient>
        <linearGradient id="x" x1="-26.031%" x2="74.068%" y1="50.005%" y2="50.005%">
            <stop offset="0%" stop-color="#7362DC"/>
            <stop offset="100%" stop-color="#3B306A" stop-opacity="0"/>
        </linearGradient>
        <linearGradient id="y" x1="50.008%" x2="50.008%" y1="100%" y2="0%">
            <stop offset="0%" stop-color="#3B306A"/>
            <stop offset="100%" stop-color="#B4AFEF" stop-opacity=".2"/>
        </linearGradient>
        <linearGradient id="z" x1="50.038%" x2="50.038%" y1="100%" y2=".417%">
            <stop offset="0%" stop-color="#B4AFEF" stop-opacity=".2"/>
            <stop offset="100%" stop-color="#3B306A"/>
        </linearGradient>
        <linearGradient id="A" x1="49.755%" x2="49.755%" y1="100.237%" y2=".237%">
            <stop offset="0%" stop-color="#B4AFEF" stop-opacity=".2"/>
            <stop offset="100%" stop-color="#3B306A"/>
        </linearGradient>
        <linearGradient id="B" x1="50.008%" x2="50.008%" y1="99.947%" y2="-.053%">
            <stop offset="0%" stop-color="#3B306A"/>
            <stop offset="100%" stop-color="#B4AFEF" stop-opacity=".2"/>
        </linearGradient>
        <linearGradient id="C" x1="0%" x2="100.091%" y1="49.969%" y2="49.969%">
            <stop offset="0%" stop-color="#B4AFEF" stop-opacity=".2"/>
            <stop offset="100%" stop-color="#3B306A"/>
        </linearGradient>
        <linearGradient id="D" x1="0%" y1="49.969%" y2="49.969%">
            <stop offset="0%" stop-color="#B4AFEF" stop-opacity=".2"/>
            <stop offset="100%" stop-color="#3B306A"/>
        </linearGradient>
        <linearGradient id="E" x1="0%" y1="50%" y2="50%">
            <stop offset="0%" stop-color="#B4AFEF" stop-opacity=".2"/>
            <stop offset="100%" stop-color="#3B306A"/>
        </linearGradient>
        <linearGradient id="F" x1=".208%" y1="49.903%" y2="49.903%">
            <stop offset="0%" stop-color="#F5F5F5"/>
            <stop offset="100%" stop-color="#FFF"/>
        </linearGradient>
        <linearGradient id="G" x1="49.931%" x2="49.931%" y1="100%" y2="0%">
            <stop offset="0%" stop-color="#7362DC"/>
            <stop offset="100%" stop-color="#6078FF"/>
        </linearGradient>
        <linearGradient id="H" x1="0%" y1="50.021%" y2="50.021%">
            <stop offset="0%" stop-color="#919DA5"/>
            <stop offset="100%" stop-color="#94A1AB"/>
        </linearGradient>
        <linearGradient id="I" x1="0%" y1="49.932%" y2="49.932%">
            <stop offset="0%" stop-color="#7362DC"/>
            <stop offset="100%" stop-color="#6078FF"/>
        </linearGradient>
        <linearGradient id="J" x1="0%" y1="50%" y2="50%">
            <stop offset="0%" stop-color="#7362DC"/>
            <stop offset="100%" stop-color="#3B306A" stop-opacity="0"/>
        </linearGradient>
        <linearGradient id="K" x1="0%" x2="99.995%" y1="49.971%" y2="49.971%">
            <stop offset="0%" stop-color="#7362DC"/>
            <stop offset="100%" stop-color="#6078FF"/>
        </linearGradient>
    </defs>
    <g fill="none" fill-rule="evenodd" transform="translate(18 11)">
        <path fill="url(#a)" d="M153.75 5.27c-36.18 8.22-35.77 28.46-71 26.49-35.23-1.97-71.89.39-79.92 44.85C-5.2 121.07 1.16 178 71.59 158.52c70.43-19.48 70.73 40.11 131.63 39.2 60.9-.91 91.86-36.44 76.78-110.16-15.08-73.72-52-99.16-126.25-82.29z" opacity=".2"/>
        <path fill="url(#a)" d="M153.75 5.27c-36.18 8.22-35.77 28.46-71 26.49-35.23-1.97-71.89.39-79.92 44.85C-5.2 121.07 1.16 178 71.59 158.52c70.43-19.48 70.73 40.11 131.63 39.2 60.9-.91 91.86-36.44 76.78-110.16-15.08-73.72-52-99.16-126.25-82.29z" opacity=".2"/>
        <path fill="url(#b)" d="M153.75 5.27c-36.18 8.22-35.77 28.46-71 26.49-35.23-1.97-71.89.39-79.92 44.85C-5.2 121.07 1.16 178 71.59 158.52c70.43-19.48 70.73 40.11 131.63 39.2 60.9-.91 91.86-36.44 76.78-110.16-15.08-73.72-52-99.16-126.25-82.29z" opacity=".2"/>
        <path fill="url(#c)" d="M153.75 5.27c-36.18 8.22-35.77 28.46-71 26.49-35.23-1.97-71.89.39-79.92 44.85C-5.2 121.07 1.16 178 71.59 158.52c70.43-19.48 70.73 40.11 131.63 39.2 60.9-.91 92-36.05 76.93-109.77C265.08 14.23 228-11.6 153.75 5.27z" opacity=".2"/>
        <path fill="url(#d)" d="M42.79 116.61c8-44.46 44.64-46.83 79.91-44.85 35.27 1.98 34.87-18.27 71.05-26.49 29.13-6.62 52.08-6.66 70.12.17C244.74 4.78 211.33-7.81 153.75 5.27c-36.18 8.22-35.77 28.46-71 26.49-35.23-1.97-71.89.39-79.91 44.85-6.69 37-3.35 82.71 38.68 85.67-2.52-14.38-1.43-30.73 1.27-45.67z" opacity=".2"/>
        <path fill="url(#e)" d="M22.79 96.61c8-44.46 44.64-46.83 79.91-44.85 35.27 1.98 34.87-18.27 71.05-26.49 36.18-8.22 62.76-6.3 82.3 6.3-20-29.52-51.88-37.75-102.3-26.3-36.18 8.22-35.77 28.46-71 26.49-35.23-1.97-71.89.39-79.91 44.85-5.79 32-4.08 70.49 23.64 82.25-8.06-17.22-7.48-41.14-3.69-62.25z" opacity=".2"/>
        <path fill="url(#f)" d="M60.14 180.92s46.75-20 72.66 10.07c0 .01-18.23-12.22-72.66-10.07z" opacity=".2" style="mix-blend-mode:multiply"/>
        <path fill="url(#g)" d="M101 154.71c38.74 2 49.37 36.34 89 42.18h.14c.69.1 1.4.19 2.11.27l.81.09 1.52.14 1 .08 1.49.1h1c.62 0 1.24.05 1.87.06h.63v-66.96H101v24.04z" opacity=".2" style="mix-blend-mode:multiply"/>
        <path fill="url(#h)" d="M171.17 191.36h28.73v-3h-34.65a78.06 78.06 0 0 0 5.92 3z"/>
        <path fill="url(#i)" d="M6.79 81.61c8-44.46 44.64-46.83 79.91-44.85 35.27 1.98 34.87-18.27 71.05-26.49C203.5-.12 234 5.7 254.19 28.92 234.09 1.56 202.63-5.83 153.75 5.27c-36.18 8.22-35.77 28.46-71 26.49-35.23-1.97-71.89.39-79.91 44.85-4.84 26.39-4.5 57.1 11.23 73.7C2.33 133 2.47 105.52 6.79 81.61z" opacity=".2"/>
        <path fill="#B4AFEF" d="M142.35 116.61H215v1.29h-72.65zM81.56 110.14h46.78v1.29H81.56zM133.3 110.14h7.98v1.29h-7.98zM144.94 110.14h1.51v1.29h-1.51zM204.44 111.43h46.78v1.29h-46.78zM191.5 111.43h7.98v1.29h-7.98zM186.33 111.43h1.51v1.29h-1.51z"/>
        <path fill="url(#j)" d="M227.18 119.59H61.62a5.18 5.18 0 0 1-5.18-5.18v2a5.18 5.18 0 0 0 5.18 5.18h165.56a5.18 5.18 0 0 0 5.17-5.18v-2a5.18 5.18 0 0 1-5.17 5.18z" opacity=".2"/>
        <path fill="#CCDCE3" d="M56.44 114.41V10.94a5.17 5.17 0 0 1 5.18-5.17h165.56a5.17 5.17 0 0 1 5.17 5.17v103.47a5.18 5.18 0 0 1-5.17 5.18H61.62a5.18 5.18 0 0 1-5.18-5.18z"/>
        <path fill="url(#k)" d="M56.44 114.41V10.94a5.17 5.17 0 0 1 5.18-5.17h165.56a5.17 5.17 0 0 1 5.17 5.17v103.47a5.18 5.18 0 0 1-5.17 5.18H61.62a5.18 5.18 0 0 1-5.18-5.18z" opacity=".2" style="mix-blend-mode:multiply"/>
        <path fill="#FAFAFA" d="M227.18 5.77H61.62a5.17 5.17 0 0 0-5.18 5.17v1a5.17 5.17 0 0 1 5.18-5.17h165.56a5.17 5.17 0 0 1 5.17 5.17v-1a5.17 5.17 0 0 0-5.17-5.17z"/>
        <path fill="url(#l)" d="M62.62 116.41a3 3 0 0 1-3-3V11.94a3 3 0 0 1 3-3h163.56a3 3 0 0 1 3 3v101.47a3 3 0 0 1-3 3H62.62z"/>
        <path fill="url(#m)" d="M216.85 116.41h9.33a3 3 0 0 0 3-3v-54c-6 2.1-7.32 5-8.48 6.5-3.39 4.33-9.74 21.57-19.17 21.57-6.7 0-14.35-16.14-14.35-16.14l-.94.46c-.3-1.89-.9-5.64-1.09-6.86-.12-.9-.14-.43-.8-4.89s-2.35-3.67-2.58-2.38c-.23 1.29.39 6.53.39 6.53s-.9-1.61-1.76-1.18c-.86.43-1 2.47-1 2.47s-.78-1-1.64-.55c-.86.45-.86 1.8-.86 1.8-1-.9-2.54-1.17-1.53 2a39.4 39.4 0 0 0 3.39 6.79l-1.34.66s9 20.31 23.34 23.51c11.32 2.53 20.61-12.59 20.61-12.59s-3.77 22.76-4.46 29.07c-.03.01-.05.12-.06.23z" opacity=".3" style="mix-blend-mode:multiply"/>
        <path fill="url(#n)" d="M226.18 8.94H62.62a3 3 0 0 0-3 3v2a3 3 0 0 1 3-3h163.56a3 3 0 0 1 3 3v-2a3 3 0 0 0-3-3z" opacity=".2" style="mix-blend-mode:multiply"/>
        <path fill="url(#o)" d="M101.39 71.23a4 4 0 0 1-2.79-1.1 2.82 2.82 0 0 0-4 0 4.09 4.09 0 0 1-5.58 0 2.81 2.81 0 0 0-4 0 4 4 0 0 1-2.79 1.1 4 4 0 0 1-2.78-1.1 2.8 2.8 0 0 0-2-.81V68a4 4 0 0 1 2.78 1.09 2.8 2.8 0 0 0 4 0 4.1 4.1 0 0 1 5.57 0 2.8 2.8 0 0 0 4 0 4.12 4.12 0 0 1 5.58 0 2.75 2.75 0 0 0 2 .82l.01 1.32z"/>
        <path fill="url(#p)" d="M101.39 63.47a4 4 0 0 1-2.79-1.1 2.82 2.82 0 0 0-4 0 4.09 4.09 0 0 1-5.58 0 2.81 2.81 0 0 0-4 0 4 4 0 0 1-2.79 1.1 4 4 0 0 1-2.78-1.1 2.8 2.8 0 0 0-2-.81v-1.29a4 4 0 0 1 2.78 1.09 2.83 2.83 0 0 0 4 0 4.1 4.1 0 0 1 5.57 0 2.83 2.83 0 0 0 4 0 4.12 4.12 0 0 1 5.58 0 2.74 2.74 0 0 0 2 .81l.01 1.3z"/>
        <circle cx="135.88" cy="37.18" r="2.52" fill="#7262DE"/>
        <circle cx="145.14" cy="47.54" r="2.52" fill="#B4AFEF"/>
        <circle cx="164.36" cy="39.69" r="2.52" fill="#B4AFEF"/>
        <circle cx="171.99" cy="29.98" r="2.52" fill="#B4AFEF"/>
        <circle cx="178.08" cy="37.18" r="2.52" fill="#B4AFEF"/>
        <circle cx="169.47" cy="47.45" r="2.52" fill="#7262DE"/>
        <circle cx="175.93" cy="66.86" r="2.52" fill="#7262DE"/>
        <circle cx="148.77" cy="62.98" r="2.52" fill="#B4AFEF"/>
        <circle cx="147.65" cy="28.8" r="2.52" fill="#B4AFEF"/>
        <circle cx="140.94" cy="71.89" r="2.52" fill="#7262DE"/>
        <circle cx="134.88" cy="63.12" r="2.52" fill="#B4AFEF"/>
        <circle cx="129.26" cy="77.07" r="2.52" fill="#B4AFEF"/>
        <circle cx="146.19" cy="81.08" r="2.52" fill="#B4AFEF"/>
        <circle cx="138.42" cy="94.02" r="2.52" fill="#B4AFEF"/>
        <path fill="#DCDDF6" d="M191.48 53.14H157.8V20.38h-2.59v32.76h-33.2v2.59h33.2v35.35h2.59V55.73h33.68zM144.89 109.2l-.98-.84 8.23-9.55 7.2 7.28 10.11-12.9 1.02.8-11.02 14.05-7.25-7.33z"/>
        <circle cx="169.96" cy="93.59" r="2.52" fill="#7262DE"/>
        <path fill="#CCDCE3" d="M211.69 104.38l-31.4.2 2.28-1.29a.64.64 0 0 0 .24-.88.65.65 0 0 0-.88-.25l-4.45 2.52a.65.65 0 0 0-.16.17.18.18 0 0 0-.05.07.57.57 0 0 0-.08.29.7.7 0 0 0 .09.29.43.43 0 0 0 0 .07.85.85 0 0 0 .17.16l3.14 1.69a.68.68 0 0 0 .31.08.65.65 0 0 0 .3-1.22l-.91-.49 31.37-.19a.66.66 0 0 0 .64-.66.64.64 0 0 0-.61-.56z"/>
        <path fill="#B4AFEF" d="M192.5 39.08h13.79s-.43 14 3.67 18.73h-14.88a65 65 0 0 1-2.58-18.73z"/>
        <path fill="#7262DE" d="M200.91 39.08h-8.41a71.307 71.307 0 0 0 1 12h10.84c-2.17-2.59-3.07-7.74-3.43-12z"/>
        <path fill="#B4AFEF" d="M184.31 29.71h13.79s-.43 14 3.67 18.73h-14.88a65 65 0 0 1-2.58-18.73zM222.22 13.45a22.2 22.2 0 0 0-5.64 16.18c.56 9.7 3.45 19.88 8.39 20.5 3.31.42 3.65 0 3.65 0s2.77 6.59-1.18 10.54c0 0 13.32 6.32 20.47-.45 0 0-8.88-10.12-4-16.59 4.88-6.47-21.69-30.18-21.69-30.18z"/>
        <path fill="#3B306A" d="M236.59 7.43s-10.73-3.38-16-.94c-4.78 2.22-1.13 9.41 3.38 11.1 0 0-3.76 7.53-1.88 14.86 0 0 2.54-2.63 4.84-.75s.81 7-2.2 6.58c0 0 1.2 4.34 4.7 5.83 3.5 1.49 16.93 5.65 21.06-7.33 4.13-12.98 9.04-28.22-13.9-29.35z"/>
        <path fill="url(#q)" d="M236.59 7.43s-10.73-3.38-16-.94c-4.78 2.22-1.13 9.41 3.38 11.1 0 0-3.76 7.53-1.88 14.86 0 0 2.54-2.63 4.84-.75s.81 7-2.2 6.58c0 0 1.2 4.34 4.7 5.83 3.5 1.49 16.93 5.65 21.06-7.33 4.13-12.98 9.04-28.22-13.9-29.35z"/>
        <path fill="#3B306A" d="M218.72 123.72l.67 72.85a98.53 98.53 0 0 0 17.07-3.78l2.55-42.9a1 1 0 1 1 2 0l3.24 40c1.89-.84 3.71-1.76 5.45-2.74a57.89 57.89 0 0 0 9.37-7.27l-2.66-59.19-37.69 3.03z"/>
        <path fill="url(#r)" d="M221.72 123.72l34.69-2.86v-.24l-37.68 3.1.67 72.85c1-.14 2-.31 3-.47l-.68-72.38z"/>
        <path fill="url(#s)" d="M244 149.86a1 1 0 1 0-2 0l-.42 7.17 2.65 32.76c1-.44 1.95-.9 2.89-1.38L244 149.86z"/>
        <path fill="#B4AFEF" d="M185.15 60.89c-.12-.9-.14-.43-.8-4.89s-2.35-3.67-2.58-2.38c-.23 1.29.39 6.53.39 6.53s-.9-1.61-1.76-1.18c-.86.43-1 2.47-1 2.47s-.78-1-1.64-.55c-.86.45-.86 1.8-.86 1.8-1-.9-2.54-1.17-1.53 2a45.54 45.54 0 0 0 4 7.83l7-3.6s-.96-6.38-1.22-8.03z"/>
        <path fill="#3B306A" d="M224.74 38.28c-1.9 0-3.1-2.17-3.1-2.17.25 4.94 4.31 4.81 4.31 4.81a11.49 11.49 0 0 1-1.21-2.64z" opacity=".2"/>
        <path fill="#3B306A" d="M74.89 157.65l1.78-40.89-29.62 1.51-5.47 44c4.97.302 9.96.101 14.89-.6l2.73-17.57.09 17.14a119.63 119.63 0 0 0 12.3-2.74c1.12-.293 2.22-.577 3.3-.85z"/>
        <path fill="url(#t)" d="M51.11 162.22l-6.35-25.52-3.18 25.59a69.28 69.28 0 0 0 9.53-.07z"/>
        <path fill="#B4AFEF" d="M69 59.9s-4.37-2.69-3.52-11.9c0 0 4.68 3 8.78 2 2.55-.62 11.69-16.5 3.51-30.38-6.62-11.25-20.5-3.89-21.77 7.3-1.27 11.19 0 32 0 32l13 .98z"/>
        <path fill="url(#u)" d="M122.15 75.86c.19-1.74-1.78-2-1.78-2-.21-1.47-2.16-.4-2.16-.4s0-2.48-1.75-1.76c-1.38.56-2.19 4.8-2.49 6.74-3.49 4.07-11.94 13.6-19.47 10.76-7.2-2.71-14.78-19.08-19.63-23.44a24 24 0 0 0-9.39-4.68h-5.86v52.36a3 3 0 0 0 3 3h16.7c-.28-.93-.55-1.89-.8-2.91a117.93 117.93 0 0 1-3-28.7s3.93 10.36 14.84 14c13.85 4.62 28.29-16.24 28.29-16.24l-.06-.06a25.35 25.35 0 0 0 4.21-3.71c1.83-2.19-.65-2.96-.65-2.96z" opacity=".3" style="mix-blend-mode:multiply"/>
        <path fill="#B4AFEF" d="M113.84 76.38s.82-7 2.62-7.7c1.8-.7 1.75 1.76 1.75 1.76s1.95-1.07 2.16.4c0 0 2 .28 1.78 2 0 0 2.48.77.66 2.94a30.76 30.76 0 0 1-5.4 4.55l-3.57-3.95z"/>
        <path fill="url(#v)" d="M65.48 58.06a24 24 0 0 1 9.39 4.68C79.72 67.1 87.3 83.47 94.5 86.18c7.65 2.88 16.23-7 19.63-11l4.53 4.34s-14.44 20.86-28.29 16.24c-10.91-3.65-14.84-14-14.84-14a117.93 117.93 0 0 0 3 28.7c3.55 14.56 10.7 19.66 12.58 23.24 1.88 3.58-4.34 4.72-4.9 10.95-.56 6.23.19 12.22-15.1 5.07s-10.57-13.94-22.84-13.18c-12.27.76-21.14-1.7-15.1-8.69 6.04-6.99 13.77-7.85 16.6-26.38 2.83-18.53 2-43.44 2-43.44l13.71.03z"/>
        <path fill="url(#w)" d="M63.05 58.05L51.73 58s.87 24.94-2 43.44c-1.15 7.53-3.12 12.15-5.46 15.46 6.62 1.36 9.71-6.39 8.63-10.91-1.28-5.32-2-15.57 3-12.54 5 3.03 10.9 1.43 9.58-11.29-.86-8.69-1.85-17.42-2.43-24.11z" opacity=".2" style="mix-blend-mode:multiply"/>
        <path fill="#3B306A" d="M75.53 81.8s-4.12-5.63-7.26-5.75c0 0 6.43 7.06 7.52 16.1-.42-6.15-.26-10.35-.26-10.35zM86.18 144.92a2 2 0 0 1 0-.23c.3-3.32 2.2-5.19 3.64-6.75a21.24 21.24 0 0 0-6.77-5.14s3.16 4.47 3.13 12.12zM64.3 145.77c.25-11.49.33-34.68.33-34.68-2.88 12.06-4.46 23-4.65 30.71a29 29 0 0 0 4.32 3.97z" opacity=".2"/>
        <path fill="#3B306A" d="M79.34 20.52c-3.34 5.65-12.2 1-10.73 6.18 1.47 5.18 3.39 11.49-.92 13.75-4.31 2.26-8.27-.52-8.13 5.89.14 6.41 1.65 19.13 3 31.85C63.91 90.91 58 92.5 53 89.48c-5-3.02-4.29 7.22-3 12.54 1.29 5.32-3.24 15.14-12.49 9.25-9.25-5.89-14.31-22.56-8-29.65 6.31-7.09 9.5-13.73 3.36-11.84-6.14 1.89-8.89-12.28-.79-16 8.1-3.72 13.75-7.47 9.69-9.54-4.06-2.07-5 2.42-8 .59s-2.11-7.83 5.46-11.7c7.57-3.87 12.6-23.67 26.05-23.79 12.3-.1 18.22 4.15 14.06 11.18z"/>
        <path fill="url(#x)" d="M79.34 20.52c-3.34 5.65-12.2 1-10.73 6.18 1.47 5.18 3.39 11.49-.92 13.75-4.31 2.26-8.27-.52-8.13 5.89.14 6.41 1.65 19.13 3 31.85C63.91 90.91 58 92.5 53 89.48c-5-3.02-4.29 7.22-3 12.54 1.29 5.32-3.24 15.14-12.49 9.25-9.25-5.89-14.31-22.56-8-29.65 6.31-7.09 9.5-13.73 3.36-11.84-6.14 1.89-8.89-12.28-.79-16 8.1-3.72 13.75-7.47 9.69-9.54-4.06-2.07-5 2.42-8 .59s-2.11-7.83 5.46-11.7c7.57-3.87 12.6-23.67 26.05-23.79 12.3-.1 18.22 4.15 14.06 11.18z"/>
        <path fill="#CCDCE3" d="M87.09 29.36h13.8s-.43 14 3.66 18.72H89.68a64.7 64.7 0 0 1-2.59-18.72z"/>
        <path fill="#B4AFEF" d="M104.73 29.36h13.8s-.43 14 3.66 18.72h-14.87a64.7 64.7 0 0 1-2.59-18.72z"/>
        <path fill="url(#y)" d="M104.73 29.36h13.8s-.43 14 3.66 18.72h-14.87a64.7 64.7 0 0 1-2.59-18.72z" opacity=".3" style="mix-blend-mode:multiply"/>
        <path fill="url(#z)" d="M117.88 41.31c-2.18-2.54-3.08-7.7-3.44-12h-9.71a71.278 71.278 0 0 0 1 12h12.15z" opacity=".3" style="mix-blend-mode:multiply"/>
        <path fill="url(#A)" d="M95.89 29.36A60.24 60.24 0 0 0 98.22 42H102a59.44 59.44 0 0 1-1.09-12.67l-5.02.03z" opacity=".3" style="mix-blend-mode:multiply"/>
        <path fill="#B4AFEF" d="M97.83 20h13.8s-.43 14 3.66 18.73h-14.87A64.73 64.73 0 0 1 97.83 20z"/>
        <path fill="url(#B)" d="M97.83 20h13.8s-.43 14 3.66 18.73h-14.87A64.73 64.73 0 0 1 97.83 20z" opacity=".3" style="mix-blend-mode:multiply"/>
        <circle cx="107.86" cy="57.47" r="3.42" fill="#CCDCE3"/>
        <path fill="url(#C)" d="M120.17 95.18h10.99v16.17h-10.99z" opacity=".3" style="mix-blend-mode:multiply"/>
        <path fill="url(#D)" d="M112.86 91.28h10.99v16.17h-10.99z" opacity=".3" style="mix-blend-mode:multiply"/>
        <path fill="#CCDCE3" d="M112.86 90.28h10.99v16.17h-10.99z"/>
        <path fill="url(#E)" d="M123.85 92.59h-5.26v13.86h2.58V95.18h2.68z" opacity=".3" style="mix-blend-mode:multiply"/>
        <path fill="#CCDCE3" d="M120.17 94.18h10.99v16.17h-10.99z"/>
        <path fill="#7262DE" fill-rule="nonzero" d="M126.12 106.77h-3.34a.65.65 0 1 1 0-1.29h3.34a.65.65 0 0 1 0 1.29zm2.59-2.59h-5.93a.65.65 0 1 1 0-1.29h5.93a.65.65 0 0 1 0 1.29zm0-2.58h-5.93a.65.65 0 0 1 0-1.3h5.93a.65.65 0 0 1 0 1.3zm0-2.59h-5.93a.65.65 0 1 1 0-1.29h5.93a.65.65 0 0 1 0 1.29z"/>
        <path fill="#7262DE" d="M169.47 85.09a.64.64 0 0 1-.6-.4c-.07-.17-7-16.75-20-21.11a.64.64 0 0 1-.41-.81.66.66 0 0 1 .82-.41c13.55 4.54 20.45 21.13 20.74 21.84a.65.65 0 0 1-.36.84.69.69 0 0 1-.19.05z"/>
        <path fill="#7262DE" d="M152.1 67.83a.62.62 0 0 1-.53-.27l-3-4.22a.64.64 0 0 1 .47-1.01l4.86-.44a.65.65 0 0 1 .12 1.29l-3.75.34 2.32 3.29a.64.64 0 0 1-.15.9.63.63 0 0 1-.34.12z"/>
        <path fill="#B4AFEF" d="M144.24 19.64a.63.63 0 0 0 0-.3.75.75 0 0 0-.19-.24h-.07a.58.58 0 0 0-.22-.08h-.05l-3.55-.36a.64.64 0 0 0-.71.58.65.65 0 0 0 .58.7l1 .11-19.37 8.26a.65.65 0 0 0 .25 1.24.74.74 0 0 0 .25 0l19.38-8.26-1.6 2a.65.65 0 0 0 .11.91.67.67 0 0 0 .95-.2l3.14-4v-.05a.62.62 0 0 0 .1-.22v-.09z"/>
        <path fill="#DCDDF6" d="M163.65 21.28l1.65-2.22-1-.77-3.71 5 5.34 1.5.35-1.25-2.79-.78c3.72-1.64 13.64-5 21.35 1l.8-1c-7.82-6.1-17.59-3.27-21.99-1.48z"/>
        <path fill="#7262DE" d="M101.65 130.67v24.08c1.74.1 3.43.27 5.07.5v-19.51h93.19l-.11-5.07h-98.15z" opacity=".1"/>
        <path fill="url(#F)" d="M108 135.41l-6.54 1 2.78 18.59a61.67 61.67 0 0 1 6.85 1.09L108 135.41z"/>
        <path fill="url(#G)" d="M112.72 134.82l-3.84.57 3.12 20.86c1.4.33 2.76.71 4.09 1.12l-3.37-22.55z"/>
        <path fill="url(#H)" d="M157.9 127.49H98.47v27.14c1.08 0 2.14.05 3.18.12v-24.08h98.25v28.69h-78.41a66.21 66.21 0 0 1 6.16 3h72.25v35.34h3.18v-70.21H157.9z"/>
        <path fill="#7262DE" d="M141.86 146a7.66 7.66 0 0 0-3.37 4.52h-1.21l-.77-1.5c2.87-1.92-3.11-5-3.11-5s-1.2 6.52 2.12 5.52l.52 1h-4.3v2.14h.55l.88 6.67h8.1l.88-6.67h.55v-2.14h-3a6.23 6.23 0 0 1 2.76-3.58c2.09 2.61 4.65-3.43 4.65-3.43s-6.95-1.31-5.25 2.47z" opacity=".1"/>
        <path fill="url(#I)" d="M138.54 143.82c-2.34 1.2-3.37 4.16-3.79 6.06l-1.54-3c2.89-1.93-3.12-5.06-3.12-5.06s-1.2 6.53 2.12 5.52l1.64 3.23h-4.31v2.14h.55l.87 6.67h8.11l.87-6.67h.55v-2.14h-4.75c.33-1.66 1.2-4.72 3.36-5.78 2.1 2.63 4.66-3.43 4.66-3.43s-6.94-1.36-5.22 2.46z"/>
        <path fill="url(#J)" d="M130.09 152.69l9.41 3.38.44-3.38z"/>
        <path fill="#3B306A" d="M61.64 45.49l3.84 6.93a22 22 0 0 1 0-4.38l-3.84-2.55z" opacity=".2"/>
        <path fill="url(#K)" d="M258.17 125.57a4.43 4.43 0 0 0 2.15-4.27l-3.31-31c-.79-8-1.87-13-3.2-22.21-1.13-14.21-9.3-16.48-21.36-13.66-8.86 2.07-10.4 5.73-11.75 7.45-3.39 4.33-9.74 21.57-19.17 21.57-6.7 0-14.35-16.14-14.35-16.14l-9.78 4.8s9 20.31 23.34 23.51c11.32 2.53 20.61-12.59 20.61-12.59s-3.77 22.76-4.46 29.07c-.53 4.88-1 9.85-1.25 11.86a2.2 2.2 0 0 0 .8 1.94c1.69 1.38 6.34 3.69 18.49 3.69l3.27.08a42.43 42.43 0 0 0 6.74-.33c6.86-.72 10.96-2.43 13.23-3.77z"/>
        <path fill="#3B306A" d="M229.29 52.45l6.06-5-6.73 2.69c.29.75.514 1.522.67 2.31z" opacity=".2"/>
    </g>
</svg>
