<svg id="Layer_1" xmlns="http://www.w3.org/2000/svg" viewBox="0 0 67 67"><style>.st0{fill:#919191}.st1,.st2{fill:none;stroke:#919191;stroke-width:2.3;stroke-linecap:round;stroke-linejoin:round;stroke-miterlimit:10}.st2{stroke-width:2.2}</style><path className="st0" d="M34.5 58h-2.3c-.4-1-.9-2-1.3-3-.1-.2-.3-.4-.6-.5-.5-.1-.9-.2-1.4-.3-.3 0-.5.1-.7.3-.7.8-1.5 1.5-2.2 2.3-.7-.3-1.4-.5-2.1-.8 0-.6-.2-2.7-.2-3.2 0-.3-.2-.6-.5-.8-.2-.1-.4-.2-.5-.3l-.6-.3c-.1-.1-.3-.1-.4-.1h-.2l-.2.1-.8.4c-.7.4-1.5.7-2.2 1.1-.6-.5-1.1-1-1.7-1.4 0 0 .7-2.4.9-3 .1-.3 0-.6-.2-.9-.3-.3-.5-.6-.8-.9-.2-.2-.4-.3-.7-.3h-.1l-1.2.1c-.6.1-1.3.1-1.9.2-.4-.7-.7-1.3-1.1-1.9 0 0 1.5-2 1.9-2.6.2-.3.3-.6.1-.9-.1-.4-.3-.8-.4-1.1-.1-.3-.3-.5-.7-.6-.5-.1-2.6-.6-3.1-.8-.1-.7-.2-1.5-.4-2.2.5-.3 1.1-.7 1.7-1.1l1-.6c.1-.1.5-.3.5-.9v-1.2c0-.3-.1-.6-.4-.8-.5-.3-2.2-1.5-2.7-1.8.1-.7.3-1.5.4-2.2 1.1-.2 2.1-.5 3.2-.7.3-.1.5-.3.5-.5.2-.4.3-.9.5-1.3.1-.3 0-.6-.1-.8-.6-.9-1.2-1.7-1.9-2.6.4-.6.8-1.3 1.1-1.9.5.1 2.6.3 3.1.4h.2c.3 0 .6-.1.7-.4.1-.1.2-.3.4-.4.1-.2.3-.3.4-.5.1-.2.2-.5.2-.8-.3-1-.6-2.1-.9-3.1.6-.5 1.2-1 1.7-1.4.9.5 1.9 1 2.8 1.4.1.1.3.1.4.1.1 0 .3 0 .4-.1.2-.1.4-.2.7-.4.1-.1.3-.2.4-.2.3-.2.5-.4.5-.8 0-.6.1-1.1.1-1.7 0-.5.1-1 .1-1.5.7-.2 1.4-.5 2.1-.8.4.4.7.8 1.1 1.2l1.1 1.1c.2.2.4.3.7.3h.2c.3-.1.7-.1 1-.2h.2c.3-.1.6-.2.7-.6.2-.5 1.1-2.4 1.3-2.9h2.2c.2.5 1.1 2.5 1.2 2.9.1.3.4.5.7.6.3.1.7.1 1 .2h.3c.4 0 .7-.3.8-.4.4-.4.7-.8 1.1-1.1.3-.4.7-.7 1-1.1.7.3 1.4.5 2.1.8 0 .6.1 1.3.1 1.9l.1 1.3c0 .4.2.6.5.8.2.1.3.2.5.3l.6.3c.1.1.3.1.4.1.1 0 .2 0 .4-.1.5-.3 2.5-1.2 2.9-1.4.3.2 1.4 1.2 1.7 1.4l-.2.8c-.2.7-.4 1.5-.7 2.2-.1.4 0 .7.2 1 .3.3.5.6.7.9.2.2.4.4.7.4h.1c.6-.1 3.1-.4 3.1-.4.4.7.7 1.3 1.1 1.9-.4.5-.8 1-1.1 1.5l-.8 1c-.2.3-.2.6-.1.9.2.4.3.8.4 1.2.1.3.3.5.7.6.5.1 2.6.6 3.1.8.1.7.2 1.5.4 2.2l-.5.3c-.7.5-1.5 1-2.2 1.4-.3.2-.5.5-.4.8v1.2c0 .3.1.6.4.8 0 0 2.2 1.5 2.6 1.8-.1.7-.3 1.5-.4 2.2-1.1.2-2.1.5-3.1.7-.2.1-.5.3-.6.5-.1.2-.2.4-.3.7-.1.2-.1.4-.2.6-.1.3-.1.6.1.9 0 0 1.5 2.1 1.9 2.6-.4.6-.8 1.3-1.1 1.9-.6-.1-3.2-.4-3.2-.4h-.1c-.3 0-.5.1-.7.4-.2.3-.5.6-.8.9-.2.3-.3.6-.2.9l.3 1.2c.2.6.4 1.2.5 1.8-.6.5-1.2 1-1.7 1.5-.4-.2-.9-.5-1.3-.7-.5-.3-1-.5-1.5-.8-.2-.1-.3-.1-.5-.1s-.3 0-.5.1-.3.2-.5.3c-.2.1-.4.2-.6.4.3.1.1.4.1.7-.1 1.1-.2 2.1-.2 3.2-.7.2-1.4.5-2.1.8-.3-.4-.7-.7-1-1-.4-.4-.8-.8-1.2-1.3-.2-.2-.4-.3-.7-.3h-.2c-.4.1-.8.1-1.2.2-.3 0-.6.2-.7.6-.2.4-1 2.3-1.2 2.8zm-1-43.5c-2.2 0-4.3.4-6.4 1.1C17.2 19.1 12 30 15.6 39.9c2.7 7.5 9.9 12.6 17.9 12.6 2.2 0 4.3-.4 6.4-1.1 9.9-3.5 15-14.4 11.5-24.3-2.7-7.6-9.9-12.6-17.9-12.6z"/><path className="st0" d="M33.5 43.8c-5.6 0-10.1-4.5-10.1-10.1s4.5-10.1 10.1-10.1 10.1 4.5 10.1 10.1-4.5 10.1-10.1 10.1zm0-17.5c-4.1 0-7.4 3.3-7.4 7.4s3.3 7.4 7.4 7.4 7.4-3.3 7.4-7.4-3.3-7.4-7.4-7.4z"/></svg>