<svg id="Layer_1" xmlns="http://www.w3.org/2000/svg" viewBox="0 0 67 67"><style>.st0{fill:#919191}.st1,.st2{fill:none;stroke:#919191;stroke-width:2.3;stroke-linecap:round;stroke-linejoin:round;stroke-miterlimit:10}.st2{stroke-width:2.2}</style><path className="st0" d="M51.6 25.6l-.5-.1-.1-.5c-1.3-5.8-6.4-9.9-12.4-9.9-3.1 0-6 1.1-8.3 3.1l-.4.3-.5-.2c-1.8-.7-3.6-1.2-5.5-1.3h-.3l-.2-.2c-2.2-2.5-5.4-3.9-8.7-3.9-6.4 0-11.6 5.2-11.6 11.6 0 2.8 1 5.5 2.8 7.6l.2.3v.3c0 .4-.1.8-.1 1.2 0 9.3 7.6 16.9 16.9 16.9h25.8c7 0 12.7-5.7 12.7-12.8.1-6-3.9-11.1-9.8-12.4zM9.1 23.4h4.6v-4.6c0-.6.5-1 1-1s1 .5 1 1v4.6h4.6c.6 0 1 .5 1 1s-.5 1-1 1h-4.6V30c0 .6-.5 1-1 1s-1-.5-1-1v-4.6H9.1c-.6 0-1-.5-1-1s.4-1 1-1zm39.7 25.1H23c-7.4 0-13.6-5.5-14.5-12.8l-.2-1.5 1.3.7c1.6.8 3.3 1.2 5.1 1.2 6.4 0 11.6-5.2 11.6-11.6 0-1.2-.2-2.5-.6-3.7l-.5-1.4 1.4.4c1 .3 2 .7 3 1.1l.7.4.6-.6c2-2.1 4.7-3.3 7.7-3.3 5.3 0 9.8 4 10.4 9.2l.1.9.9.1c5.3.6 9.2 5.1 9.2 10.4.1 5.8-4.6 10.5-10.4 10.5z"/></svg>