<svg id="Layer_1" xmlns="http://www.w3.org/2000/svg" viewBox="0 0 67 67"><style>.st0{fill:#919191}.st1,.st2{fill:none;stroke:#919191;stroke-width:2.3;stroke-linecap:round;stroke-linejoin:round;stroke-miterlimit:10}.st2{stroke-width:2.2}</style><path className="st0" d="M33.5 55.4c-.6 0-1.1-.2-1.6-.5C13.8 43.6 13 25.4 13.2 20.1c0-1.3.9-2.4 2.1-2.8 6.2-1.9 10.7-3.4 13.7-4.4 2.1-.7 3.4-1.2 4-1.3h1c.6.1 1.9.5 4 1.3 3 1 7.4 2.6 13.7 4.4 1.2.4 2.1 1.5 2.1 2.8.2 5.3-.6 23.5-18.7 34.8-.5.3-1 .5-1.6.5zm0-41.7c-.3 0-.5 0-.8.1-.7.2-1.8.6-3.1 1-2.7.9-6.7 2.3-12.3 4-1.3.4-2.2 1.6-2.2 3 .1 7.6 2.5 21.8 17.8 31.4.2.1.3.1.5.1s.4-.1.5-.1c15.3-9.6 17.7-23.8 17.8-31.4 0-1.4-.9-2.6-2.2-3-5.5-1.7-9.6-3.1-12.3-4-1.3-.4-2.3-.8-3-1-.1 0-.4-.1-.7-.1z"/></svg>