<svg id="Layer_1" xmlns="http://www.w3.org/2000/svg" viewBox="0 0 67 67"><style>.st0{fill:#919191}.st1,.st2{fill:none;stroke:#919191;stroke-width:2.3;stroke-linecap:round;stroke-linejoin:round;stroke-miterlimit:10}.st2{stroke-width:2.2}</style><path className="st0" d="M33.5 55.9c-1 0-2-.2-2.8-.7L16 46.7c-1.5-.9-2.8-3-2.8-4.8V25c0-1.8 1.2-3.9 2.8-4.8l14.7-8.5c.8-.4 1.7-.7 2.8-.7 1 0 2 .2 2.8.7L51 20.2c1.5.9 2.8 3 2.8 4.8v17c0 1.8-1.2 3.9-2.8 4.8l-14.7 8.5c-.8.4-1.8.6-2.8.6zm0-42.8c-.7 0-1.3.1-1.8.4L17.1 22c-.9.5-1.8 2-1.8 3v17c0 1.1.8 2.5 1.8 3l14.7 8.5c.4.3 1.1.4 1.8.4s1.3-.1 1.8-.4L49.9 45c.9-.5 1.8-2 1.8-3V25c0-1.1-.8-2.5-1.8-3l-14.7-8.5c-.4-.2-1-.4-1.7-.4z"/><path className="st0" d="M33.5 49.7c-.6 0-1-.5-1-1V34.1l-12.8-7.2c-.5-.3-.7-.9-.4-1.4.2-.3.5-.5.9-.5.2 0 .3 0 .5.1l12.8 7.2 12.7-7.2c.2-.1.3-.1.5-.1.4 0 .7.2.9.5.3.5.1 1.1-.4 1.4l-12.6 7.2v14.6c-.1.5-.5 1-1.1 1z"/></svg>