<svg id="Layer_1" xmlns="http://www.w3.org/2000/svg" viewBox="0 0 67 67"><style>.st0{fill:#919191}.st1,.st2{fill:none;stroke:#919191;stroke-width:2.3;stroke-linecap:round;stroke-linejoin:round;stroke-miterlimit:10}.st2{stroke-width:2.2}</style><path className="st0" d="M24.8 57.7c-3.2 0-5.7-2.6-5.7-5.7V37.3l-.5-.2c-3.1-1.1-8.3-3.5-8.3-7.6s5.2-6.5 8.3-7.6l.5-.2V15c0-3.2 2.6-5.7 5.7-5.7h17.5c3.2 0 5.7 2.6 5.7 5.7v6.7l.5.2c3.1 1.1 8.3 3.5 8.3 7.6s-5.2 6.5-8.3 7.6l-.5.2V52c0 3.2-2.6 5.7-5.7 5.7H24.8zM21 52c0 2.1 1.7 3.7 3.7 3.7h17.5c2.1 0 3.7-1.7 3.7-3.7V37.9l-1 .2c-.8.2-1.7.4-2.5.5h-.2c-.5 0-1-.4-1-1 0-.5.3-.9.8-1 1.1-.2 2.1-.4 3.2-.7l.6-.2V15c0-2.1-1.7-3.7-3.7-3.7H24.8C22.7 11.3 21 13 21 15v20.8l.6.2c3.2.8 6.8 1.3 10.7 1.4H34l-3.2-4.1c-.2-.2-.2-.5-.2-.7 0-.3.2-.5.4-.7.2-.1.4-.2.6-.2.3 0 .6.1.8.4l4.8 6c.3.4.3.9 0 1.3l-4.8 6c-.2.2-.5.4-.8.4-.2 0-.4-.1-.6-.2-.2-.2-.3-.4-.4-.7s0-.5.2-.7l3.7-4.7h-1.6c-3.8 0-7.5-.5-10.9-1.2l-1-.2V52zm-3.1-27.8c-3.7 1.5-5.8 3.4-5.8 5.3s2.1 3.8 5.8 5.3l1.1.4V23.8l-1.1.4zm30.1 11l1.1-.4c3.7-1.5 5.8-3.4 5.8-5.3s-2.1-3.8-5.8-5.3l-1.1-.4v11.4z"/><circle className="st0" cx="34" cy="50.5" r="1.7"/><circle className="st0" cx="34" cy="50.5" r="1.7"/></svg>