<?xml version="1.0" encoding="UTF-8"?>
<svg width="323px" height="220px" viewBox="0 0 323 220" version="1.1" xmlns="http://www.w3.org/2000/svg" xmlns:xlink="http://www.w3.org/1999/xlink">
    <!-- Generator: Sketch 52.4 (67378) - http://www.bohemiancoding.com/sketch -->
    <title>services/human-centered-design</title>
    <desc>Created with Sketch.</desc>
    <defs>
        <linearGradient x1="49.985285%" y1="99.9889133%" x2="49.985285%" y2="-0.00116268045%" id="linearGradient-1">
            <stop stop-color="#919DA5" stop-opacity="0" offset="0%"></stop>
            <stop stop-color="#3F4952" offset="100%"></stop>
        </linearGradient>
        <linearGradient x1="49.992035%" y1="99.998266%" x2="49.992035%" y2="-0.00125531382%" id="linearGradient-2">
            <stop stop-color="#919DA5" stop-opacity="0" offset="0%"></stop>
            <stop stop-color="#3F4952" offset="100%"></stop>
        </linearGradient>
        <linearGradient x1="27.7962693%" y1="82.6838382%" x2="99.1155618%" y2="6.81302549%" id="linearGradient-3">
            <stop stop-color="#3F4952" offset="0%"></stop>
            <stop stop-color="#919DA5" stop-opacity="0" offset="100%"></stop>
        </linearGradient>
        <linearGradient x1="50.0024976%" y1="99.9964454%" x2="50.0024976%" y2="-0.00125536507%" id="linearGradient-4">
            <stop stop-color="#919DA5" stop-opacity="0" offset="0%"></stop>
            <stop stop-color="#3F4952" offset="100%"></stop>
        </linearGradient>
        <linearGradient x1="50%" y1="99.9978541%" x2="50%" y2="-0.00693106139%" id="linearGradient-5">
            <stop stop-color="#919DA5" stop-opacity="0" offset="0%"></stop>
            <stop stop-color="#3F4952" offset="100%"></stop>
        </linearGradient>
        <linearGradient x1="50.0044591%" y1="99.9989711%" x2="50.0044591%" y2="0.0158717447%" id="linearGradient-6">
            <stop stop-color="#919DA5" stop-opacity="0" offset="0%"></stop>
            <stop stop-color="#3F4952" offset="100%"></stop>
        </linearGradient>
        <linearGradient x1="49.9604117%" y1="100%" x2="49.9604117%" y2="0%" id="linearGradient-7">
            <stop stop-color="#919DA5" stop-opacity="0" offset="0%"></stop>
            <stop stop-color="#3F4952" offset="100%"></stop>
        </linearGradient>
        <linearGradient x1="49.9977701%" y1="100%" x2="49.9977701%" y2="-0.00129304117%" id="linearGradient-8">
            <stop stop-color="#919DA5" stop-opacity="0" offset="0%"></stop>
            <stop stop-color="#3F4952" offset="100%"></stop>
        </linearGradient>
        <linearGradient x1="49.9936224%" y1="100%" x2="49.9936224%" y2="0%" id="linearGradient-9">
            <stop stop-color="#6078FF" offset="0%"></stop>
            <stop stop-color="#7362DC" offset="100%"></stop>
        </linearGradient>
        <linearGradient x1="49.9850773%" y1="99.999247%" x2="49.9850773%" y2="0%" id="linearGradient-10">
            <stop stop-color="#3F4952" offset="0%"></stop>
            <stop stop-color="#919DA5" stop-opacity="0" offset="100%"></stop>
        </linearGradient>
        <linearGradient x1="1.3507891e-13%" y1="50.0020919%" x2="99.9961061%" y2="50.0020919%" id="linearGradient-11">
            <stop stop-color="#3B306A" offset="0%"></stop>
            <stop stop-color="#3B306A" stop-opacity="0" offset="100%"></stop>
        </linearGradient>
        <linearGradient x1="49.9641791%" y1="99.9996476%" x2="49.9641791%" y2="21.4730138%" id="linearGradient-12">
            <stop stop-color="#3B306A" stop-opacity="0.2" offset="0%"></stop>
            <stop stop-color="#3B306A" offset="100%"></stop>
        </linearGradient>
        <linearGradient x1="21.7970149%" y1="190.070884%" x2="58.2029851%" y2="5.94141791%" id="linearGradient-13">
            <stop stop-color="#3B306A" stop-opacity="0" offset="0%"></stop>
            <stop stop-color="#3B306A" offset="100%"></stop>
        </linearGradient>
        <linearGradient x1="0%" y1="50%" x2="100.005971%" y2="50%" id="linearGradient-14">
            <stop stop-color="#3B306A" offset="0%"></stop>
            <stop stop-color="#3B306A" stop-opacity="0" offset="100%"></stop>
        </linearGradient>
        <linearGradient x1="50%" y1="100%" x2="50%" y2="-1.02089474e-13%" id="linearGradient-15">
            <stop stop-color="#7362DC" offset="0%"></stop>
            <stop stop-color="#6078FF" offset="100%"></stop>
        </linearGradient>
        <linearGradient x1="49.9832832%" y1="100%" x2="49.9832832%" y2="0%" id="linearGradient-16">
            <stop stop-color="#3B306A" offset="0%"></stop>
            <stop stop-color="#3B306A" stop-opacity="0" offset="100%"></stop>
        </linearGradient>
        <linearGradient x1="49.9832832%" y1="100%" x2="49.9832832%" y2="0%" id="linearGradient-17">
            <stop stop-color="#7362DC" offset="0%"></stop>
            <stop stop-color="#6078FF" offset="100%"></stop>
        </linearGradient>
        <linearGradient x1="50%" y1="100%" x2="50%" y2="0%" id="linearGradient-18">
            <stop stop-color="#3F4952" offset="0%"></stop>
            <stop stop-color="#919DA5" stop-opacity="0" offset="100%"></stop>
        </linearGradient>
        <linearGradient x1="0%" y1="49.9545867%" x2="100%" y2="49.9545867%" id="linearGradient-19">
            <stop stop-color="#7362DC" offset="0%"></stop>
            <stop stop-color="#3B306A" offset="100%"></stop>
        </linearGradient>
        <linearGradient x1="0%" y1="49.9736604%" x2="100%" y2="49.9736604%" id="linearGradient-20">
            <stop stop-color="#3B306A" stop-opacity="0" offset="0%"></stop>
            <stop stop-color="#3B306A" offset="100%"></stop>
        </linearGradient>
        <linearGradient x1="-246.90583%" y1="50.0029423%" x2="100%" y2="50.0029423%" id="linearGradient-21">
            <stop stop-color="#3B306A" stop-opacity="0" offset="0%"></stop>
            <stop stop-color="#3B306B" stop-opacity="0.01" offset="38%"></stop>
            <stop stop-color="#3D326E" stop-opacity="0.04" offset="52%"></stop>
            <stop stop-color="#403575" stop-opacity="0.09" offset="62%"></stop>
            <stop stop-color="#45387D" stop-opacity="0.17" offset="70%"></stop>
            <stop stop-color="#4A3E89" stop-opacity="0.27" offset="77%"></stop>
            <stop stop-color="#514497" stop-opacity="0.39" offset="83%"></stop>
            <stop stop-color="#594BA8" stop-opacity="0.54" offset="88%"></stop>
            <stop stop-color="#6354BB" stop-opacity="0.71" offset="93%"></stop>
            <stop stop-color="#6D5DD1" stop-opacity="0.9" offset="98%"></stop>
            <stop stop-color="#7362DC" offset="100%"></stop>
        </linearGradient>
        <linearGradient x1="0.017454352%" y1="49.984093%" x2="99.9953639%" y2="49.984093%" id="linearGradient-22">
            <stop stop-color="#7362DC" offset="0%"></stop>
            <stop stop-color="#6078FF" offset="100%"></stop>
        </linearGradient>
        <linearGradient x1="10.2454541%" y1="16.3571331%" x2="92.128518%" y2="81.0833362%" id="linearGradient-23">
            <stop stop-color="#7362DC" offset="0%"></stop>
            <stop stop-color="#3B306A" stop-opacity="0" offset="100%"></stop>
        </linearGradient>
        <linearGradient x1="50.1657915%" y1="100.105552%" x2="50.1657915%" y2="0.0211104074%" id="linearGradient-24">
            <stop stop-color="#3B306A" offset="0%"></stop>
            <stop stop-color="#3B306A" stop-opacity="0" offset="100%"></stop>
        </linearGradient>
        <linearGradient x1="0.0327225131%" y1="50.0099456%" x2="100.032723%" y2="50.0099456%" id="linearGradient-25">
            <stop stop-color="#3F4952" offset="0%"></stop>
            <stop stop-color="#919DA5" stop-opacity="0" offset="100%"></stop>
        </linearGradient>
        <linearGradient x1="2.81403064e-14%" y1="50.0033548%" x2="100%" y2="50.0033548%" id="linearGradient-26">
            <stop stop-color="#919DA5" stop-opacity="0" offset="0%"></stop>
            <stop stop-color="#3F4952" offset="100%"></stop>
        </linearGradient>
    </defs>
    <g id="services/human-centered-design" stroke="none" stroke-width="1" fill="none" fill-rule="evenodd">
        <g id="human-centered-design" transform="translate(19.000000, 16.000000)">
            <path d="M159.64,0.54 C112.37,-0.6 114.13,24.34 68.82,28.89 C36.73,32.11 24.75,58.13 33.9,77.46 C43.05,96.79 24.9,108.59 24.9,127.2 C24.9,145.81 36.53,186.71 104.57,162.41 C172.61,138.11 160.36,183.54 214.43,183.41 C268.5,183.28 282.99,163.35 279.49,130.54 C275.99,97.73 291.97,87.88 279.49,62.09 C270.75,44 246.83,2.64 159.64,0.54 Z" id="Path" fill="url(#linearGradient-1)" opacity="0.2"></path>
            <path d="M92.58,129.66 C92.58,115.03 106.89,105.76 99.69,90.56 C92.49,75.36 101.91,54.89 127.14,52.36 C162.77,48.79 161.39,29.18 198.56,30.07 C239.29,31.07 262.46,42.94 276,55.41 C264.77,35.47 237.3,2.41 159.64,0.54 C112.37,-0.6 114.13,24.34 68.82,28.89 C36.73,32.11 24.75,58.13 33.9,77.46 C43.05,96.79 24.9,108.59 24.9,127.2 C24.9,145.81 36.53,186.71 104.57,162.41 C106.676667,161.65 108.716667,160.96 110.69,160.34 C96,154 92.58,138.56 92.58,129.66 Z" id="Path" fill="url(#linearGradient-2)" opacity="0.2"></path>
            <path d="M179.46,82.07 C171.96,66.56 153.2,33.74 92.58,23.55 C84.9323927,26.3776136 76.9420571,28.1734214 68.82,28.89 C36.73,32.11 24.75,58.13 33.9,77.46 C43.05,96.79 24.9,108.59 24.9,127.2 C24.9,145.81 36.53,186.71 104.57,162.41 C150.91,145.85 160.01,161.66 178.19,173.41 C180.09,166.74 180.4,159.09 179.49,150.56 C176,117.71 191.93,107.86 179.46,82.07 Z" id="Path" fill="url(#linearGradient-3)" opacity="0.2"></path>
            <path d="M179.46,82.07 C171.96,66.56 153.2,33.74 92.58,23.55 C84.9323927,26.3776136 76.9420571,28.1734214 68.82,28.89 C36.73,32.11 24.75,58.13 33.9,77.46 C43.05,96.79 24.9,108.59 24.9,127.2 C24.9,145.81 36.53,186.71 104.57,162.41 C150.91,145.85 160.01,161.66 178.19,173.41 C180.09,166.74 180.4,159.09 179.49,150.56 C176,117.71 191.93,107.86 179.46,82.07 Z" id="Path" fill="url(#linearGradient-3)" opacity="0.2"></path>
            <path d="M64.86,137.2 C64.86,118.59 83.06,106.8 73.86,87.46 C64.66,68.12 76.69,42.11 108.78,38.89 C154.09,34.34 152.33,9.4 199.6,10.54 C208.124177,10.7244334 216.632678,11.3586489 225.09,12.44 C208.62,5.85 187.31,1.21 159.6,0.54 C112.33,-0.6 114.09,24.34 68.78,28.89 C36.73,32.11 24.75,58.13 33.9,77.46 C43.05,96.79 24.9,108.59 24.9,127.2 C24.9,142.99 33.29,174.83 77.4,169.26 C67.46,159.74 64.86,146 64.86,137.2 Z" id="Path" fill="url(#linearGradient-4)" opacity="0.2"></path>
            <path d="M167.93,166.12 C178.93,174.07 189.76,183.46 214.39,183.39 C215.65,183.39 216.89,183.39 218.11,183.39 C203.53,173.94 194.77,161.93 167.93,166.12 Z" id="Path" fill="url(#linearGradient-5)" opacity="0.2"></path>
            <path d="M241.61,173.85 C199.09,173.96 208.72,138.24 155.22,157.35 L153.64,157.9 C172.34,164.9 179.79,183.48 214.39,183.39 C239.09,183.32 255.53,179.13 265.77,171.46 C257.830792,173.153852 249.727206,173.95549 241.61,173.85 Z" id="Path" fill="url(#linearGradient-6)" opacity="0.2"></path>
            <path d="M167.19,165.59 C171.19,168.49 175.19,171.59 179.82,174.42 C175.52,171.35 171.56,168.21 167.19,165.59 Z" id="Path" fill="url(#linearGradient-7)" opacity="0.2"></path>
            <path d="M30.86,131.2 C30.86,112.59 49.06,100.8 39.86,81.46 C30.66,62.12 42.69,36.11 74.78,32.89 C120.09,28.34 118.33,3.4 165.6,4.54 C204.75,5.48 231.14,14.35 249.13,25.47 C231.13,12.55 203.35,1.59 159.6,0.54 C112.33,-0.6 114.09,24.34 68.78,28.89 C36.73,32.11 24.75,58.13 33.9,77.46 C43.05,96.79 24.9,108.59 24.9,127.2 C24.9,137.97 28.81,156.2 45.32,164.97 C33.79,155.46 30.86,140.52 30.86,131.2 Z" id="Path" fill="url(#linearGradient-8)" opacity="0.2"></path>
            <path d="M282.56,94.9 C284.73,84.62 285.96,75.51 279.46,62.07 C274.33,51.46 263.93,32.76 238.46,18.73 L123.89,18.73 C120.576292,18.73 117.89,21.4162915 117.89,24.73 L117.89,158.24 C171.14,144.36 164.17,183.52 214.39,183.39 L277.39,183.39 C281.808278,183.39 285.39,179.808278 285.39,175.39 L285.39,94.9 L282.56,94.9 Z" id="Path" fill="#B4AFEF"></path>
            <path d="M277.89,137.2 L178.11,137.2 L178.11,126.54 L277.89,126.54 L277.89,137.2 Z M285.37,160.48 L159.23,160.48 C161.06,161.48 162.82,162.58 164.54,163.75 L164.76,163.9 L165.67,164.53 C165.83,164.63 165.98,164.74 166.13,164.85 L166.49,165.1 C177.97,173.22 188.7,183.39 214.39,183.39 L277.39,183.39 C281.808278,183.39 285.39,179.808278 285.39,175.39 L285.37,160.48 Z M179.06,152.85 L247.34,152.85 L247.34,142.19 L179.06,142.19 L179.06,152.85 Z M179.06,121.48 L278.84,121.48 L278.84,110.83 L179.06,110.83 L179.06,121.48 Z M168.3,121.4 L128.59,121.4 L128.59,152.85 L168.3,152.85 L168.3,121.4 Z" id="Shape" fill="url(#linearGradient-9)" fill-rule="nonzero" opacity="0.4"></path>
            <path d="M117.89,144.14 C121.83,144.66 135.98,145.38 143.5,130.57 C152.29,113.26 168.44,115.57 178.94,126.27 C189.44,136.97 203.87,128.49 210.04,121.4 C216.21,114.31 223.18,108.66 232.1,115.1 C241.02,121.54 254.93,119.39 257.95,106.35 C260.97,93.31 269.63,97.64 272.65,105.35 C273.610448,107.74747 275.569201,109.606515 278.013537,110.440509 C280.457872,111.274504 283.144439,111.00042 285.37,109.69 L285.37,94.9 L282.56,94.9 C284.73,84.62 285.96,75.51 279.46,62.07 C279.36,61.85 279.25,61.63 279.14,61.4 L117.89,61.4 L117.89,144.14 Z" id="Path" fill="#7262DE" opacity="0.2"></path>
            <path d="M117.89,137.67 C117.89,137.67 131.56,141.59 140.35,124.27 C149.14,106.95 165.29,109.22 175.79,119.97 C186.29,130.72 200.72,122.19 206.89,115.1 C213.06,108.01 220,102.36 229,108.8 C238,115.24 251.83,113.09 254.85,100.05 C257.87,87.01 266.53,91.34 269.55,99.05 C272.12,105.65 281.92,107.05 285.42,99.81 L285.42,55.1 L117.89,55.1 L117.89,137.67 Z" id="Path" fill="#F9F9F9"></path>
            <path d="M117.89,137.67 C117.89,137.67 131.56,141.59 140.35,124.27 C149.14,106.95 165.29,109.22 175.79,119.97 C186.29,130.72 200.72,122.19 206.89,115.1 C213.06,108.01 220,102.36 229,108.8 C238,115.24 251.83,113.09 254.85,100.05 C257.87,87.01 266.53,91.34 269.55,99.05 C272.12,105.65 281.92,107.05 285.42,99.81 L285.42,55.1 L117.89,55.1 L117.89,137.67 Z" id="Path" fill="url(#linearGradient-10)" opacity="0.2" style="mix-blend-mode: multiply;"></path>
            <path d="M120.54,98.3 C120,98.93 119.14,100.03 117.89,101.37 L117.89,117.51 C120.495125,115.451621 122.762493,112.998681 124.61,110.24 C127.76,105.52 129.73,103.42 127.37,100.89 C125.01,98.36 122.25,96.33 120.54,98.3 Z" id="Path" fill="url(#linearGradient-11)" opacity="0.2" style="mix-blend-mode: multiply;"></path>
            <path d="M285.37,94.9 L285.37,99.84 C281.87,107.09 272.07,105.68 269.5,99.08 C266.5,91.34 257.82,87.01 254.8,100.08 C251.78,113.15 237.87,115.23 229,108.8 C220.13,102.37 213.11,108.01 206.94,115.1 C200.77,122.19 186.34,130.71 175.84,119.97 C165.34,109.23 149.19,106.97 140.4,124.27 C131.61,141.57 117.95,137.67 117.94,137.67 L117.94,158.24 C171.19,144.36 164.22,183.52 214.44,183.39 L277.44,183.39 C281.858278,183.39 285.44,179.808278 285.44,175.39 L285.44,94.9 L285.37,94.9 Z" id="Path" fill="url(#linearGradient-12)" opacity="0.3" style="mix-blend-mode: multiply;"></path>
            <path d="M277.37,178.39 L214.37,178.39 C164.15,178.52 171.12,139.39 117.87,153.24 L117.87,158.24 C171.12,144.36 164.15,183.52 214.37,183.39 L277.37,183.39 C281.788278,183.39 285.37,179.808278 285.37,175.39 L285.37,170.39 C285.37,174.808278 281.788278,178.39 277.37,178.39 Z" id="Path" fill="url(#linearGradient-13)" opacity="0.2" style="mix-blend-mode: multiply;"></path>
            <rect id="Rectangle" fill="#FAFAFA" x="84.43" y="42.35" width="65.55" height="1.23"></rect>
            <path d="M139.48,34.13 L94.93,34.13 C94.7664703,34.130022 94.6097795,34.0643834 94.4950905,33.9478142 C94.3804014,33.831245 94.3173192,33.6735077 94.32,33.51 C94.32,33.1731063 94.5931063,32.9 94.93,32.9 L139.48,32.9 C139.643508,32.8973192 139.801245,32.9604014 139.917814,33.0750905 C140.034383,33.1897795 140.100022,33.3464703 140.1,33.51 C140.1,33.6744342 140.034679,33.8321336 139.918406,33.9484062 C139.802134,34.0646788 139.644434,34.13 139.48,34.13 Z" id="Path" fill="#FAFAFA"></path>
            <path d="M122.09,18.73 L281.17,18.73 C283.489596,18.73 285.37,20.6104041 285.37,22.93 L285.37,36.58 L117.89,36.58 L117.89,22.93 C117.89,20.6104041 119.770404,18.73 122.09,18.73 Z" id="Path" fill="#CCDCE3"></path>
            <rect id="Rectangle" fill="url(#linearGradient-14)" opacity="0.2" style="mix-blend-mode: multiply;" x="117.89" y="35.58" width="167.47" height="1"></rect>
            <path d="M281.17,18.73 L122.09,18.73 C119.770404,18.73 117.89,20.6104041 117.89,22.93 L117.89,23.93 C117.89,22.8160907 118.332499,21.7478043 119.120152,20.9601515 C119.907804,20.1724987 120.976091,19.73 122.09,19.73 L281.17,19.73 C282.283909,19.73 283.352196,20.1724987 284.139848,20.9601515 C284.927501,21.7478043 285.37,22.8160907 285.37,23.93 L285.37,22.93 C285.37,20.6104041 283.489596,18.73 281.17,18.73 Z" id="Path" fill="#F9F9F9"></path>
            <rect id="Rectangle" fill="#3B306A" x="117.89" y="36.58" width="167.47" height="18.52"></rect>
            <circle id="Oval" fill="#3B306A" cx="125.11" cy="27.39" r="3.48"></circle>
            <circle id="Oval" fill="#FAFAFA" cx="128.13" cy="45.84" r="5.25"></circle>
            <circle id="Oval" fill="url(#linearGradient-15)" cx="135.81" cy="27.39" r="3.48"></circle>
            <circle id="Oval" fill="#B4AFEF" cx="146.5" cy="27.39" r="3.48"></circle>
            <rect id="Rectangle" fill="#FAFAFA" x="154.58" y="23.03" width="124.26" height="8.73" rx="4.36"></rect>
            <path d="M164.1,47.94 L138.83,47.94 C137.670202,47.94 136.73,46.999798 136.73,45.84 C136.73,44.680202 137.670202,43.74 138.83,43.74 L164.1,43.74 C165.259798,43.74 166.2,44.680202 166.2,45.84 C166.2,46.999798 165.259798,47.94 164.1,47.94 Z" id="Path" fill="#FAFAFA"></path>
            <path d="M278.84,47.94 L265.09,47.94 C263.930202,47.94 262.99,46.999798 262.99,45.84 C262.99,44.680202 263.930202,43.74 265.09,43.74 L278.84,43.74 C279.999798,43.74 280.94,44.680202 280.94,45.84 C280.94,46.999798 279.999798,47.94 278.84,47.94 Z M257.84,47.94 L244.09,47.94 C242.930202,47.94 241.99,46.999798 241.99,45.84 C241.99,44.680202 242.930202,43.74 244.09,43.74 L257.84,43.74 C258.999798,43.74 259.94,44.680202 259.94,45.84 C259.94,46.999798 258.999798,47.94 257.84,47.94 Z" id="Shape" fill="#B4AFEF" fill-rule="nonzero"></path>
            <path d="M236.84,47.94 L223.09,47.94 C221.930202,47.94 220.99,46.999798 220.99,45.84 C220.99,44.680202 221.930202,43.74 223.09,43.74 L236.84,43.74 C237.999798,43.74 238.94,44.680202 238.94,45.84 C238.94,46.999798 237.999798,47.94 236.84,47.94 Z" id="Path" fill="#FAFAFA"></path>
            <rect id="Rectangle" fill="url(#linearGradient-16)" opacity="0.2" style="mix-blend-mode: multiply;" x="179.06" y="92.89" width="29.91" height="8.51" rx="1.05"></rect>
            <rect id="Rectangle" fill="url(#linearGradient-17)" x="179.06" y="91.89" width="29.91" height="8.51" rx="1.05"></rect>
            <rect id="Rectangle" fill="#B4AFEF" x="132.33" y="62.33" width="40.17" height="30.6" rx="2.1"></rect>
            <circle id="Oval" fill="#F9F9F9" cx="159.63" cy="73.07" r="7.48"></circle>
            <path d="M136.33,87.19 L144.07,67.72 C144.253831,67.2745778 144.688134,66.9839824 145.17,66.9839824 C145.651866,66.9839824 146.086169,67.2745778 146.27,67.72 L151.67,80.98 L157.33,73.35 C157.575288,73.0225326 157.972704,72.845499 158.380204,72.882174 C158.787704,72.918849 159.147124,73.1639978 159.33,73.53 L166.07,87 C166.254355,87.3667069 166.234915,87.802866 166.018668,88.151718 C165.80242,88.50057 165.420435,88.7119931 165.01,88.71 L137.43,88.84 C137.029231,88.8460119 136.652813,88.6481761 136.430482,88.314679 C136.20815,87.9811819 136.170309,87.5576279 136.33,87.19 Z" id="Path" fill="#3B306A"></path>
            <path d="M90.21,56.18 L82.61,56.18 C82.4464703,56.180022 82.2897795,56.1143834 82.1750905,55.9978142 C82.0604014,55.881245 81.9973192,55.7235077 82,55.56 C82,55.2231063 82.2731063,54.95 82.61,54.95 L90.21,54.95 C90.3735077,54.9473192 90.531245,55.0104014 90.6478142,55.1250905 C90.7643834,55.2397795 90.830022,55.3964703 90.83,55.56 C90.83,55.7244342 90.7646788,55.8821336 90.6484062,55.9984062 C90.5321336,56.1146788 90.3744342,56.18 90.21,56.18 Z" id="Path" fill="#FAFAFA"></path>
            <path d="M79.12,56.18 L77.69,56.18 C77.5255658,56.18 77.3678664,56.1146788 77.2515938,55.9984062 C77.1353212,55.8821336 77.07,55.7244342 77.07,55.56 C77.069978,55.3964703 77.1356166,55.2397795 77.2521858,55.1250905 C77.368755,55.0104014 77.5264923,54.9473192 77.69,54.95 L79.12,54.95 C79.2835077,54.9473192 79.441245,55.0104014 79.5578142,55.1250905 C79.6743834,55.2397795 79.740022,55.3964703 79.74,55.56 C79.74,55.9024165 79.4624165,56.18 79.12,56.18 Z" id="Path" fill="#FAFAFA"></path>
            <path d="M89,84.15 L86.19,71.88 C80.19,67.07 66.86,80.98 70.53,89.12 L66.24,96.6 L75.34,97.14 L76.01,91.51 C81.01,94.09 87.2,93.41 87.2,89.74 L87.2,85.52 L88,85.52 C88.3352741,85.519984 88.6503823,85.3598576 88.8480508,85.0890517 C89.0457194,84.8182458 89.1021788,84.4693246 89,84.15 Z" id="Path" fill="#FAFAFA"></path>
            <rect id="Rectangle" fill="url(#linearGradient-18)" opacity="0.2" style="mix-blend-mode: multiply;" x="120.14" y="49.1" width="10.54" height="25.45"></rect>
            <path d="M120.14,82.64 L120.14,73 C120.14,72.6393056 120.283285,72.2933843 120.538335,72.0383348 C120.793384,71.7832853 121.139306,71.64 121.5,71.64 L129.32,71.64 C130.071107,71.64 130.68,72.2488927 130.68,73 L130.68,82.65 L120.14,82.64 Z" id="Path" fill="url(#linearGradient-19)"></path>
            <path d="M129.32,71.63 L128,71.63 C128.751107,71.63 129.36,72.2388927 129.36,72.99 L129.36,82.64 L130.7,82.64 L130.7,73 C130.70273,72.6340827 130.557889,72.2825037 130.2982,72.0246966 C130.038511,71.7668894 129.685888,71.6246085 129.32,71.63 Z" id="Path" fill="#3B306A"></path>
            <rect id="Rectangle" fill="#E9E9FF" x="120.14" y="79.92" width="10.54" height="2.72"></rect>
            <rect id="Rectangle" fill="#B4AFEF" opacity="0.4" style="mix-blend-mode: multiply;" x="129.32" y="79.92" width="1.36" height="2.72"></rect>
            <path d="M125.41,82.64 L120.14,82.64 C120.14,82.64 120.23,84.64 121.34,85.33 C122.45,86.02 124.14,85.52 124.14,90.61 C124.14,95.7 125.41,95.15 125.41,95.15 C125.41,95.15 126.68,95.69 126.68,90.61 C126.68,85.53 128.38,85.96 129.48,85.33 C130.58,84.7 130.68,82.64 130.68,82.64 L125.41,82.64 Z" id="Path" fill="#B4AFEF"></path>
            <path d="M129.3,82.64 C129.3,82.64 129.21,84.64 128.11,85.33 C127.01,86.02 125.3,85.52 125.3,90.61 C125.3,93 125.02,94.14 124.72,94.68 C125.06,95.29 125.41,95.15 125.41,95.15 C125.41,95.15 126.68,95.69 126.68,90.61 C126.68,85.53 128.38,85.96 129.48,85.33 C130.58,84.7 130.68,82.64 130.68,82.64 L129.3,82.64 Z" id="Path" fill="url(#linearGradient-20)" opacity="0.2" style="mix-blend-mode: multiply;"></path>
            <path d="M118.07,91.39 C118.07,91.39 120.64,86.39 121.57,84.67 C122.64,82.74 123.57,86.36 123.57,87.83 L127.57,87.83 C129.82,87.83 128.66,93.56 127.57,95.56 C126.48,97.56 122.24,98.06 122.24,98.06 L118.07,91.39 Z" id="Path" fill="#3B306A"></path>
            <path d="M63.79,169.8 L62.55,150.89 L30.37,149.94 C35.7,159.93 45.74,168.72 63.79,169.8 Z" id="Path" fill="#3B306A"></path>
            <path d="M62.63,152.67 C59.2623742,152.646559 55.9043937,153.032727 52.63,153.82 L53,168 C56.5185033,168.979227 60.1331066,169.572719 63.78,169.77 L62.63,152.67 Z" id="Path" fill="url(#linearGradient-21)"></path>
            <path d="M68.06,93.94 C68.06,93.94 76.99,95.59 80.79,98.94 C84.59,102.29 90.11,107.78 100.61,103.31 C107.287011,100.521277 113.122062,96.0407302 117.54,90.31 C119.25,88.31 122,90.37 124.37,92.9 C126.74,95.43 124.76,97.53 121.61,102.25 C118.46,106.97 112.16,113.67 98.51,117.61 C84.86,121.55 81.32,118.17 73.44,125.61 C68.06,136.36 66.75,143.61 66.22,148.56 C65.69,153.51 66.09,155.79 61.63,155.56 C57.17,155.33 34.63,156.13 28.16,153.72 C21.69,151.31 19.94,148.27 22,145 C32,129.41 32.06,116.58 47.28,98.39 C62.5,80.2 68.06,93.94 68.06,93.94 Z" id="Path" fill="url(#linearGradient-22)"></path>
            <path d="M85.66,77.77 C82.66,81.91 72.74,89.34 72.06,95.25 C71.38,101.16 74.67,111.32 72.71,114.98 C70.75,118.64 69.13,122.59 59.71,122.41 C50.29,122.23 45.26,123.88 36.4,131.8 C27.54,139.72 13.75,138.8 8.11,133.2 C2.47,127.6 -6.14,109.07 9.85,102.09 C25.84,95.11 31.12,97.7 40.75,91.65 C50.38,85.6 56,72.92 63.18,66.07 C70.36,59.22 76.7,59.36 81.29,61.82 C85.88,64.28 90.41,71.2 85.66,77.77 Z" id="Path" fill="#3B306A"></path>
            <path d="M85.66,77.77 C82.66,81.91 72.74,89.34 72.06,95.25 C71.38,101.16 74.67,111.32 72.71,114.98 C70.75,118.64 69.13,122.59 59.71,122.41 C50.29,122.23 45.26,123.88 36.4,131.8 C27.54,139.72 13.75,138.8 8.11,133.2 C2.47,127.6 -6.14,109.07 9.85,102.09 C25.84,95.11 31.12,97.7 40.75,91.65 C50.38,85.6 56,72.92 63.18,66.07 C70.36,59.22 76.7,59.36 81.29,61.82 C85.88,64.28 90.41,71.2 85.66,77.77 Z" id="Path" fill="url(#linearGradient-23)"></path>
            <path d="M39.36,135.8 C48.22,127.88 53.22,126.23 62.67,126.41 C72.12,126.59 73.75,122.65 75.67,118.98 C77.59,115.31 74.34,105.16 75.02,99.25 C75.1705214,98.1980736 75.5092613,97.181854 76.02,96.25 C74.7104564,95.7380894 73.3753442,95.2941646 72.02,94.92 C71.9908563,95.0253122 71.9674882,95.1321381 71.95,95.24 C71.8076564,96.9253322 71.8378129,98.6207959 72.04,100.3 C72.13,101.22 72.25,102.17 72.37,103.11 C72.43,103.59 72.5,104.06 72.56,104.54 C72.69,105.48 72.82,106.42 72.93,107.33 C72.93,107.79 73.03,108.24 73.07,108.68 C73.33,111.31 73.33,113.6 72.6,114.97 C72.35,115.43 72.12,115.89 71.86,116.35 C71.2653281,117.544381 70.4819384,118.635049 69.54,119.58 C69.1160223,119.977908 68.6537784,120.332965 68.16,120.64 C66.34,121.77 63.7,122.48 59.56,122.4 C57.79,122.4 56.18,122.4 54.66,122.52 C52.745346,122.660409 50.8530418,123.01941 49.02,123.59 C48.1119749,123.863493 47.2233142,124.197576 46.36,124.59 C45.439498,125.017623 44.5446529,125.498435 43.68,126.03 C41.0367222,127.709868 38.5500217,129.624259 36.25,131.75 C35.8909404,132.07768 35.5136739,132.384835 35.12,132.67 C32.5700372,134.63695 29.6321564,136.041135 26.5,136.79 C25.62,138.6 24.65,140.43 23.56,142.29 C28.74,141.64 35.64,139.13 39.36,135.8 Z" id="Path" fill="url(#linearGradient-24)" opacity="0.2" style="mix-blend-mode: multiply;"></path>
            <path d="M274,67.59 L181.06,67.59 C179.955431,67.59 179.06,66.6945695 179.06,65.59 C179.06,64.4854305 179.955431,63.59 181.06,63.59 L274,63.59 C275.104569,63.59 276,64.4854305 276,65.59 C276,66.6945695 275.104569,67.59 274,67.59 Z" id="Path" fill="#3B306A"></path>
            <path d="M274,76.73 L181.06,76.73 C179.955431,76.73 179.06,75.8345695 179.06,74.73 C179.06,73.6254305 179.955431,72.73 181.06,72.73 L274,72.73 C275.104569,72.73 276,73.6254305 276,74.73 C276,75.8345695 275.104569,76.73 274,76.73 Z" id="Path" fill="#3B306A"></path>
            <path d="M238,85.88 L181.06,85.88 C179.955431,85.88 179.06,84.9845695 179.06,83.88 C179.06,82.7754305 179.955431,81.88 181.06,81.88 L238,81.88 C239.104569,81.88 240,82.7754305 240,83.88 C240,84.9845695 239.104569,85.88 238,85.88 Z" id="Path" fill="#3B306A"></path>
            <path d="M269.5,97.08 C266.5,89.34 257.82,85.01 254.8,98.08 C251.78,111.15 237.87,113.23 229,106.8 C220.13,100.37 213.11,106.01 206.94,113.1 C200.77,120.19 186.34,128.71 175.84,117.97 C165.34,107.23 149.19,104.97 140.4,122.27 C131.61,139.57 117.95,135.67 117.94,135.67 L117.94,137.67 C117.94,137.67 131.61,141.59 140.4,124.27 C149.19,106.95 165.34,109.22 175.84,119.97 C186.34,130.72 200.77,122.19 206.94,115.1 C213.11,108.01 220,102.36 229,108.8 C238,115.24 251.83,113.09 254.85,100.05 C257.87,87.01 266.53,91.34 269.55,99.05 C272.12,105.65 281.92,107.05 285.42,99.81 L285.42,97.81 C281.87,105.09 272.07,103.68 269.5,97.08 Z" id="Path" fill="#F9F9F9"></path>
            <path d="M74,184.4 C94.8026591,181.599489 115.276226,176.742376 135.12,169.9 C135.12,169.9 108.29,196.34 74,184.4 Z" id="Path" fill="url(#linearGradient-25)" opacity="0.2" style="mix-blend-mode: multiply;"></path>
            <path d="M59.81,20.93 C59.81,20.93 89.21,24.39 110.31,3.14 C94.3154069,11.2255946 77.3408524,17.2053436 59.81,20.93 Z" id="Path" fill="url(#linearGradient-26)" opacity="0.2" style="mix-blend-mode: multiply;"></path>
        </g>
    </g>
</svg>